<svg width="240" height="270" viewBox="0 0 240 270" fill="none" xmlns="http://www.w3.org/2000/svg">
<path d="M240 260L240.851 267.955L248 267.19V260H240ZM20.5 249.5L14.8431 255.157L14.8431 255.157L20.5 249.5ZM21 21.5L26.6569 27.1568L26.6569 27.1568L21 21.5ZM240 -1.54972e-05H248V-8.00002H240V-1.54972e-05ZM240 67.5V75.5H248V67.5H240ZM240 195H248V186.306L239.336 187.028L240 195ZM239.149 252.045C177.016 258.691 122.31 262 75 262V278C123.023 278 178.317 274.643 240.851 267.955L239.149 252.045ZM75 262C54.0599 262 38.0652 255.751 26.1569 243.843L14.8431 255.157C30.2682 270.582 50.6068 278 75 278V262ZM26.1569 243.843C14.2485 231.935 8 215.94 8 195H-8C-8 219.393 -0.581865 239.732 14.8431 255.157L26.1569 243.843ZM8 195V80H-8V195H8ZM8 80C8 56.535 14.5265 39.2872 26.6569 27.1568L15.3431 15.8431C-0.526534 31.7128 -8 53.465 -8 80H8ZM26.6569 27.1568C39.1554 14.6583 56.5965 7.99998 80 7.99998V-8.00002C53.4035 -8.00002 31.5113 -0.325024 15.3431 15.8431L26.6569 27.1568ZM80 7.99998H240V-8.00002H80V7.99998ZM232 -1.54972e-05V67.5H248V-1.54972e-05H232ZM240 59.5H107.5V75.5H240V59.5ZM107.5 59.5C99.6002 59.5 92.2059 61.4804 86.8432 66.8431C81.4804 72.2059 79.5 79.6002 79.5 87.5H95.5C95.5 82.0665 96.853 79.4607 98.1569 78.1568C99.4608 76.853 102.066 75.5 107.5 75.5V59.5ZM79.5 87.5V185H95.5V87.5H79.5ZM79.5 185C79.5 191.979 81.9115 198.225 86.8432 203.157L98.1569 191.843C96.4219 190.108 95.5 188.021 95.5 185H79.5ZM86.8432 203.157C91.7748 208.089 98.0211 210.5 105 210.5V194.5C101.979 194.5 99.8918 193.578 98.1569 191.843L86.8432 203.157ZM105 210.5C135.346 210.5 180.616 207.976 240.664 202.972L239.336 187.028C179.384 192.024 134.654 194.5 105 194.5V210.5ZM232 195V260H248V195H232Z" fill="#001A40"/>
</svg>
