<svg width="334" height="78" viewBox="0 0 334 78" fill="none" xmlns="http://www.w3.org/2000/svg">
<path d="M24 57.1L24.0893 58.096L25 58.0143V57.1H24ZM3.44 56.06L4.14711 55.3529L4.14711 55.3529L3.44 56.06ZM3.48 31.42L4.18711 32.1271L4.18711 32.1271L3.48 31.42ZM24 29.5H25V28.5H24V29.5ZM24 35.1V36.1H25V35.1H24ZM9.32 51.78L8.58721 52.4605L8.61241 52.4876L8.63955 52.5128L9.32 51.78ZM12.56 52.3V53.3H12.58L12.6 53.2992L12.56 52.3ZM14.64 52.22L14.677 53.2193L14.677 53.2193L14.64 52.22ZM16.8 52.14L16.7643 51.1406L16.763 51.1407L16.8 52.14ZM19.64 51.98L19.572 50.9823L19.5704 50.9824L19.64 51.98ZM24 51.7H25V50.6366L23.9386 50.7019L24 51.7ZM23.9107 56.104C17.9801 56.6359 13.0791 56.9 9.2 56.9V58.9C13.1609 58.9 18.1266 58.6308 24.0893 58.096L23.9107 56.104ZM9.2 56.9C6.71938 56.9 5.10971 56.3155 4.14711 55.3529L2.73289 56.7671C4.22362 58.2578 6.45396 58.9 9.2 58.9V56.9ZM4.14711 55.3529C3.1845 54.3903 2.6 52.7806 2.6 50.3H0.6C0.6 53.046 1.24216 55.2764 2.73289 56.7671L4.14711 55.3529ZM2.6 50.3V37.5H0.6V50.3H2.6ZM2.6 37.5C2.6 34.8165 3.20529 33.1089 4.18711 32.1271L2.77289 30.7129C1.24805 32.2377 0.6 34.5835 0.6 37.5H2.6ZM4.18711 32.1271C5.19886 31.1154 6.92368 30.5 9.6 30.5V28.5C6.67632 28.5 4.32114 29.1646 2.77289 30.7129L4.18711 32.1271ZM9.6 30.5H24V28.5H9.6V30.5ZM23 29.5V35.1H25V29.5H23ZM24 34.1H11.2V36.1H24V34.1ZM11.2 34.1C10.2459 34.1 9.34657 34.3392 8.69289 34.9929C8.03921 35.6466 7.8 36.5459 7.8 37.5H9.8C9.8 36.8541 9.96079 36.5534 10.1071 36.4071C10.2534 36.2608 10.5541 36.1 11.2 36.1V34.1ZM7.8 37.5V50.3H9.8V37.5H7.8ZM7.8 50.3C7.8 51.1113 8.03504 51.8658 8.58721 52.4605L10.0528 51.0995C9.91163 50.9475 9.8 50.7153 9.8 50.3H7.8ZM8.63955 52.5128C9.21686 53.0489 9.93479 53.3 10.72 53.3V51.3C10.3852 51.3 10.1698 51.2045 10.0005 51.0472L8.63955 52.5128ZM10.72 53.3C10.7211 53.3 10.7222 53.3 10.7233 53.3C10.7244 53.3 10.7255 53.3 10.7266 53.3C10.7277 53.3 10.7288 53.3 10.7298 53.3C10.7309 53.3 10.732 53.3 10.7331 53.3C10.7342 53.3 10.7353 53.3 10.7364 53.3C10.7375 53.3 10.7386 53.3 10.7397 53.3C10.7408 53.3 10.7419 53.3 10.743 53.3C10.7441 53.3 10.7452 53.3 10.7463 53.3C10.7474 53.3 10.7485 53.3 10.7496 53.3C10.7507 53.3 10.7518 53.3 10.7529 53.3C10.754 53.3 10.7551 53.3 10.7562 53.3C10.7573 53.3 10.7584 53.3 10.7595 53.3C10.7606 53.3 10.7617 53.3 10.7628 53.3C10.7639 53.3 10.765 53.3 10.7661 53.3C10.7672 53.3 10.7683 53.3 10.7694 53.3C10.7705 53.3 10.7716 53.3 10.7727 53.3C10.7738 53.3 10.7749 53.3 10.776 53.3C10.7771 53.3 10.7782 53.3 10.7793 53.3C10.7804 53.3 10.7815 53.3 10.7826 53.3C10.7837 53.3 10.7848 53.3 10.7859 53.3C10.787 53.3 10.7881 53.3 10.7892 53.3C10.7903 53.3 10.7914 53.3 10.7925 53.3C10.7936 53.3 10.7947 53.3 10.7958 53.3C10.7969 53.3 10.798 53.3 10.7991 53.3C10.8002 53.3 10.8013 53.3 10.8024 53.3C10.8035 53.3 10.8046 53.3 10.8057 53.3C10.8068 53.3 10.8079 53.3 10.809 53.3C10.8101 53.3 10.8112 53.3 10.8124 53.3C10.8135 53.3 10.8146 53.3 10.8157 53.3C10.8168 53.3 10.8179 53.3 10.819 53.3C10.8201 53.3 10.8212 53.3 10.8223 53.3C10.8234 53.3 10.8245 53.3 10.8256 53.3C10.8267 53.3 10.8278 53.3 10.8289 53.3C10.8301 53.3 10.8312 53.3 10.8323 53.3C10.8334 53.3 10.8345 53.3 10.8356 53.3C10.8367 53.3 10.8378 53.3 10.8389 53.3C10.84 53.3 10.8411 53.3 10.8422 53.3C10.8434 53.3 10.8445 53.3 10.8456 53.3C10.8467 53.3 10.8478 53.3 10.8489 53.3C10.85 53.3 10.8511 53.3 10.8522 53.3C10.8533 53.3 10.8544 53.3 10.8556 53.3C10.8567 53.3 10.8578 53.3 10.8589 53.3C10.86 53.3 10.8611 53.3 10.8622 53.3C10.8633 53.3 10.8644 53.3 10.8656 53.3C10.8667 53.3 10.8678 53.3 10.8689 53.3C10.87 53.3 10.8711 53.3 10.8722 53.3C10.8733 53.3 10.8745 53.3 10.8756 53.3C10.8767 53.3 10.8778 53.3 10.8789 53.3C10.88 53.3 10.8811 53.3 10.8822 53.3C10.8834 53.3 10.8845 53.3 10.8856 53.3C10.8867 53.3 10.8878 53.3 10.8889 53.3C10.89 53.3 10.8912 53.3 10.8923 53.3C10.8934 53.3 10.8945 53.3 10.8956 53.3C10.8967 53.3 10.8979 53.3 10.899 53.3C10.9001 53.3 10.9012 53.3 10.9023 53.3C10.9034 53.3 10.9045 53.3 10.9057 53.3C10.9068 53.3 10.9079 53.3 10.909 53.3C10.9101 53.3 10.9112 53.3 10.9124 53.3C10.9135 53.3 10.9146 53.3 10.9157 53.3C10.9168 53.3 10.918 53.3 10.9191 53.3C10.9202 53.3 10.9213 53.3 10.9224 53.3C10.9235 53.3 10.9247 53.3 10.9258 53.3C10.9269 53.3 10.928 53.3 10.9291 53.3C10.9303 53.3 10.9314 53.3 10.9325 53.3C10.9336 53.3 10.9347 53.3 10.9359 53.3C10.937 53.3 10.9381 53.3 10.9392 53.3C10.9403 53.3 10.9415 53.3 10.9426 53.3C10.9437 53.3 10.9448 53.3 10.9459 53.3C10.9471 53.3 10.9482 53.3 10.9493 53.3C10.9504 53.3 10.9516 53.3 10.9527 53.3C10.9538 53.3 10.9549 53.3 10.956 53.3C10.9572 53.3 10.9583 53.3 10.9594 53.3C10.9605 53.3 10.9617 53.3 10.9628 53.3C10.9639 53.3 10.965 53.3 10.9662 53.3C10.9673 53.3 10.9684 53.3 10.9695 53.3C10.9707 53.3 10.9718 53.3 10.9729 53.3C10.974 53.3 10.9752 53.3 10.9763 53.3C10.9774 53.3 10.9785 53.3 10.9797 53.3C10.9808 53.3 10.9819 53.3 10.983 53.3C10.9842 53.3 10.9853 53.3 10.9864 53.3C10.9875 53.3 10.9887 53.3 10.9898 53.3C10.9909 53.3 10.992 53.3 10.9932 53.3C10.9943 53.3 10.9954 53.3 10.9965 53.3C10.9977 53.3 10.9988 53.3 10.9999 53.3C11.0011 53.3 11.0022 53.3 11.0033 53.3C11.0044 53.3 11.0056 53.3 11.0067 53.3C11.0078 53.3 11.009 53.3 11.0101 53.3C11.0112 53.3 11.0123 53.3 11.0135 53.3C11.0146 53.3 11.0157 53.3 11.0169 53.3C11.018 53.3 11.0191 53.3 11.0203 53.3C11.0214 53.3 11.0225 53.3 11.0236 53.3C11.0248 53.3 11.0259 53.3 11.027 53.3C11.0282 53.3 11.0293 53.3 11.0304 53.3C11.0316 53.3 11.0327 53.3 11.0338 53.3C11.035 53.3 11.0361 53.3 11.0372 53.3C11.0384 53.3 11.0395 53.3 11.0406 53.3C11.0418 53.3 11.0429 53.3 11.044 53.3C11.0452 53.3 11.0463 53.3 11.0474 53.3C11.0486 53.3 11.0497 53.3 11.0508 53.3C11.052 53.3 11.0531 53.3 11.0542 53.3C11.0554 53.3 11.0565 53.3 11.0576 53.3C11.0588 53.3 11.0599 53.3 11.061 53.3C11.0622 53.3 11.0633 53.3 11.0644 53.3C11.0656 53.3 11.0667 53.3 11.0679 53.3C11.069 53.3 11.0701 53.3 11.0713 53.3C11.0724 53.3 11.0735 53.3 11.0747 53.3C11.0758 53.3 11.0769 53.3 11.0781 53.3C11.0792 53.3 11.0804 53.3 11.0815 53.3C11.0826 53.3 11.0838 53.3 11.0849 53.3C11.086 53.3 11.0872 53.3 11.0883 53.3C11.0895 53.3 11.0906 53.3 11.0917 53.3C11.0929 53.3 11.094 53.3 11.0952 53.3C11.0963 53.3 11.0974 53.3 11.0986 53.3C11.0997 53.3 11.1009 53.3 11.102 53.3C11.1031 53.3 11.1043 53.3 11.1054 53.3C11.1066 53.3 11.1077 53.3 11.1088 53.3C11.11 53.3 11.1111 53.3 11.1123 53.3C11.1134 53.3 11.1145 53.3 11.1157 53.3C11.1168 53.3 11.118 53.3 11.1191 53.3C11.1203 53.3 11.1214 53.3 11.1225 53.3C11.1237 53.3 11.1248 53.3 11.126 53.3C11.1271 53.3 11.1283 53.3 11.1294 53.3C11.1305 53.3 11.1317 53.3 11.1328 53.3C11.134 53.3 11.1351 53.3 11.1363 53.3C11.1374 53.3 11.1385 53.3 11.1397 53.3C11.1408 53.3 11.142 53.3 11.1431 53.3C11.1443 53.3 11.1454 53.3 11.1466 53.3C11.1477 53.3 11.1489 53.3 11.15 53.3C11.1511 53.3 11.1523 53.3 11.1534 53.3C11.1546 53.3 11.1557 53.3 11.1569 53.3C11.158 53.3 11.1592 53.3 11.1603 53.3C11.1615 53.3 11.1626 53.3 11.1638 53.3C11.1649 53.3 11.1661 53.3 11.1672 53.3C11.1684 53.3 11.1695 53.3 11.1706 53.3C11.1718 53.3 11.1729 53.3 11.1741 53.3C11.1752 53.3 11.1764 53.3 11.1775 53.3C11.1787 53.3 11.1798 53.3 11.181 53.3C11.1821 53.3 11.1833 53.3 11.1844 53.3C11.1856 53.3 11.1867 53.3 11.1879 53.3C11.189 53.3 11.1902 53.3 11.1913 53.3C11.1925 53.3 11.1936 53.3 11.1948 53.3C11.1959 53.3 11.1971 53.3 11.1982 53.3C11.1994 53.3 11.2005 53.3 11.2017 53.3C11.2029 53.3 11.204 53.3 11.2052 53.3C11.2063 53.3 11.2075 53.3 11.2086 53.3C11.2098 53.3 11.2109 53.3 11.2121 53.3C11.2132 53.3 11.2144 53.3 11.2155 53.3C11.2167 53.3 11.2178 53.3 11.219 53.3C11.2201 53.3 11.2213 53.3 11.2225 53.3C11.2236 53.3 11.2248 53.3 11.2259 53.3C11.2271 53.3 11.2282 53.3 11.2294 53.3C11.2305 53.3 11.2317 53.3 11.2329 53.3C11.234 53.3 11.2352 53.3 11.2363 53.3C11.2375 53.3 11.2386 53.3 11.2398 53.3C11.2409 53.3 11.2421 53.3 11.2433 53.3C11.2444 53.3 11.2456 53.3 11.2467 53.3C11.2479 53.3 11.249 53.3 11.2502 53.3C11.2514 53.3 11.2525 53.3 11.2537 53.3C11.2548 53.3 11.256 53.3 11.2571 53.3C11.2583 53.3 11.2595 53.3 11.2606 53.3C11.2618 53.3 11.2629 53.3 11.2641 53.3C11.2653 53.3 11.2664 53.3 11.2676 53.3C11.2687 53.3 11.2699 53.3 11.2711 53.3C11.2722 53.3 11.2734 53.3 11.2745 53.3C11.2757 53.3 11.2769 53.3 11.278 53.3C11.2792 53.3 11.2803 53.3 11.2815 53.3C11.2827 53.3 11.2838 53.3 11.285 53.3C11.2862 53.3 11.2873 53.3 11.2885 53.3C11.2896 53.3 11.2908 53.3 11.292 53.3C11.2931 53.3 11.2943 53.3 11.2955 53.3C11.2966 53.3 11.2978 53.3 11.2989 53.3C11.3001 53.3 11.3013 53.3 11.3024 53.3C11.3036 53.3 11.3048 53.3 11.3059 53.3C11.3071 53.3 11.3083 53.3 11.3094 53.3C11.3106 53.3 11.3117 53.3 11.3129 53.3C11.3141 53.3 11.3152 53.3 11.3164 53.3C11.3176 53.3 11.3187 53.3 11.3199 53.3C11.3211 53.3 11.3222 53.3 11.3234 53.3C11.3246 53.3 11.3257 53.3 11.3269 53.3C11.3281 53.3 11.3292 53.3 11.3304 53.3C11.3316 53.3 11.3327 53.3 11.3339 53.3C11.3351 53.3 11.3362 53.3 11.3374 53.3C11.3386 53.3 11.3397 53.3 11.3409 53.3C11.3421 53.3 11.3432 53.3 11.3444 53.3C11.3456 53.3 11.3468 53.3 11.3479 53.3C11.3491 53.3 11.3503 53.3 11.3514 53.3C11.3526 53.3 11.3538 53.3 11.3549 53.3C11.3561 53.3 11.3573 53.3 11.3584 53.3C11.3596 53.3 11.3608 53.3 11.362 53.3C11.3631 53.3 11.3643 53.3 11.3655 53.3C11.3666 53.3 11.3678 53.3 11.369 53.3C11.3702 53.3 11.3713 53.3 11.3725 53.3C11.3737 53.3 11.3748 53.3 11.376 53.3C11.3772 53.3 11.3784 53.3 11.3795 53.3C11.3807 53.3 11.3819 53.3 11.3831 53.3C11.3842 53.3 11.3854 53.3 11.3866 53.3C11.3877 53.3 11.3889 53.3 11.3901 53.3C11.3913 53.3 11.3924 53.3 11.3936 53.3C11.3948 53.3 11.396 53.3 11.3971 53.3C11.3983 53.3 11.3995 53.3 11.4007 53.3C11.4018 53.3 11.403 53.3 11.4042 53.3C11.4054 53.3 11.4065 53.3 11.4077 53.3C11.4089 53.3 11.4101 53.3 11.4112 53.3C11.4124 53.3 11.4136 53.3 11.4148 53.3C11.416 53.3 11.4171 53.3 11.4183 53.3C11.4195 53.3 11.4207 53.3 11.4218 53.3C11.423 53.3 11.4242 53.3 11.4254 53.3C11.4265 53.3 11.4277 53.3 11.4289 53.3C11.4301 53.3 11.4313 53.3 11.4324 53.3C11.4336 53.3 11.4348 53.3 11.436 53.3C11.4372 53.3 11.4383 53.3 11.4395 53.3C11.4407 53.3 11.4419 53.3 11.4431 53.3C11.4442 53.3 11.4454 53.3 11.4466 53.3C11.4478 53.3 11.449 53.3 11.4501 53.3C11.4513 53.3 11.4525 53.3 11.4537 53.3C11.4549 53.3 11.456 53.3 11.4572 53.3C11.4584 53.3 11.4596 53.3 11.4608 53.3C11.462 53.3 11.4631 53.3 11.4643 53.3C11.4655 53.3 11.4667 53.3 11.4679 53.3C11.469 53.3 11.4702 53.3 11.4714 53.3C11.4726 53.3 11.4738 53.3 11.475 53.3C11.4762 53.3 11.4773 53.3 11.4785 53.3C11.4797 53.3 11.4809 53.3 11.4821 53.3C11.4833 53.3 11.4844 53.3 11.4856 53.3C11.4868 53.3 11.488 53.3 11.4892 53.3C11.4904 53.3 11.4916 53.3 11.4927 53.3C11.4939 53.3 11.4951 53.3 11.4963 53.3C11.4975 53.3 11.4987 53.3 11.4999 53.3C11.501 53.3 11.5022 53.3 11.5034 53.3C11.5046 53.3 11.5058 53.3 11.507 53.3C11.5082 53.3 11.5094 53.3 11.5105 53.3C11.5117 53.3 11.5129 53.3 11.5141 53.3C11.5153 53.3 11.5165 53.3 11.5177 53.3C11.5189 53.3 11.52 53.3 11.5212 53.3C11.5224 53.3 11.5236 53.3 11.5248 53.3C11.526 53.3 11.5272 53.3 11.5284 53.3C11.5296 53.3 11.5307 53.3 11.5319 53.3C11.5331 53.3 11.5343 53.3 11.5355 53.3C11.5367 53.3 11.5379 53.3 11.5391 53.3C11.5403 53.3 11.5415 53.3 11.5427 53.3C11.5438 53.3 11.545 53.3 11.5462 53.3C11.5474 53.3 11.5486 53.3 11.5498 53.3C11.551 53.3 11.5522 53.3 11.5534 53.3C11.5546 53.3 11.5558 53.3 11.557 53.3C11.5582 53.3 11.5593 53.3 11.5605 53.3C11.5617 53.3 11.5629 53.3 11.5641 53.3C11.5653 53.3 11.5665 53.3 11.5677 53.3C11.5689 53.3 11.5701 53.3 11.5713 53.3C11.5725 53.3 11.5737 53.3 11.5749 53.3C11.5761 53.3 11.5773 53.3 11.5785 53.3C11.5797 53.3 11.5809 53.3 11.582 53.3C11.5832 53.3 11.5844 53.3 11.5856 53.3C11.5868 53.3 11.588 53.3 11.5892 53.3C11.5904 53.3 11.5916 53.3 11.5928 53.3C11.594 53.3 11.5952 53.3 11.5964 53.3C11.5976 53.3 11.5988 53.3 11.6 53.3C11.6012 53.3 11.6024 53.3 11.6036 53.3C11.6048 53.3 11.606 53.3 11.6072 53.3C11.6084 53.3 11.6096 53.3 11.6108 53.3C11.612 53.3 11.6132 53.3 11.6144 53.3C11.6156 53.3 11.6168 53.3 11.618 53.3C11.6192 53.3 11.6204 53.3 11.6216 53.3C11.6228 53.3 11.624 53.3 11.6252 53.3C11.6264 53.3 11.6276 53.3 11.6288 53.3C11.63 53.3 11.6312 53.3 11.6324 53.3C11.6336 53.3 11.6348 53.3 11.636 53.3C11.6372 53.3 11.6384 53.3 11.6396 53.3C11.6408 53.3 11.642 53.3 11.6432 53.3C11.6444 53.3 11.6456 53.3 11.6468 53.3C11.648 53.3 11.6492 53.3 11.6504 53.3C11.6516 53.3 11.6528 53.3 11.654 53.3C11.6552 53.3 11.6565 53.3 11.6577 53.3C11.6589 53.3 11.6601 53.3 11.6613 53.3C11.6625 53.3 11.6637 53.3 11.6649 53.3C11.6661 53.3 11.6673 53.3 11.6685 53.3C11.6697 53.3 11.6709 53.3 11.6721 53.3C11.6733 53.3 11.6745 53.3 11.6757 53.3C11.6769 53.3 11.6782 53.3 11.6794 53.3C11.6806 53.3 11.6818 53.3 11.683 53.3C11.6842 53.3 11.6854 53.3 11.6866 53.3C11.6878 53.3 11.689 53.3 11.6902 53.3C11.6914 53.3 11.6926 53.3 11.6939 53.3C11.6951 53.3 11.6963 53.3 11.6975 53.3C11.6987 53.3 11.6999 53.3 11.7011 53.3C11.7023 53.3 11.7035 53.3 11.7047 53.3C11.7059 53.3 11.7072 53.3 11.7084 53.3C11.7096 53.3 11.7108 53.3 11.712 53.3C11.7132 53.3 11.7144 53.3 11.7156 53.3C11.7168 53.3 11.718 53.3 11.7193 53.3C11.7205 53.3 11.7217 53.3 11.7229 53.3C11.7241 53.3 11.7253 53.3 11.7265 53.3C11.7277 53.3 11.729 53.3 11.7302 53.3C11.7314 53.3 11.7326 53.3 11.7338 53.3C11.735 53.3 11.7362 53.3 11.7374 53.3C11.7387 53.3 11.7399 53.3 11.7411 53.3C11.7423 53.3 11.7435 53.3 11.7447 53.3C11.7459 53.3 11.7472 53.3 11.7484 53.3C11.7496 53.3 11.7508 53.3 11.752 53.3C11.7532 53.3 11.7544 53.3 11.7557 53.3C11.7569 53.3 11.7581 53.3 11.7593 53.3C11.7605 53.3 11.7617 53.3 11.763 53.3C11.7642 53.3 11.7654 53.3 11.7666 53.3C11.7678 53.3 11.769 53.3 11.7703 53.3C11.7715 53.3 11.7727 53.3 11.7739 53.3C11.7751 53.3 11.7763 53.3 11.7776 53.3C11.7788 53.3 11.78 53.3 11.7812 53.3C11.7824 53.3 11.7837 53.3 11.7849 53.3C11.7861 53.3 11.7873 53.3 11.7885 53.3C11.7897 53.3 11.791 53.3 11.7922 53.3C11.7934 53.3 11.7946 53.3 11.7958 53.3C11.7971 53.3 11.7983 53.3 11.7995 53.3C11.8007 53.3 11.8019 53.3 11.8032 53.3C11.8044 53.3 11.8056 53.3 11.8068 53.3C11.808 53.3 11.8093 53.3 11.8105 53.3C11.8117 53.3 11.8129 53.3 11.8142 53.3C11.8154 53.3 11.8166 53.3 11.8178 53.3C11.819 53.3 11.8203 53.3 11.8215 53.3C11.8227 53.3 11.8239 53.3 11.8252 53.3C11.8264 53.3 11.8276 53.3 11.8288 53.3C11.8301 53.3 11.8313 53.3 11.8325 53.3C11.8337 53.3 11.8349 53.3 11.8362 53.3C11.8374 53.3 11.8386 53.3 11.8398 53.3C11.8411 53.3 11.8423 53.3 11.8435 53.3C11.8447 53.3 11.846 53.3 11.8472 53.3C11.8484 53.3 11.8496 53.3 11.8509 53.3C11.8521 53.3 11.8533 53.3 11.8546 53.3C11.8558 53.3 11.857 53.3 11.8582 53.3C11.8595 53.3 11.8607 53.3 11.8619 53.3C11.8631 53.3 11.8644 53.3 11.8656 53.3C11.8668 53.3 11.8681 53.3 11.8693 53.3C11.8705 53.3 11.8717 53.3 11.873 53.3C11.8742 53.3 11.8754 53.3 11.8767 53.3C11.8779 53.3 11.8791 53.3 11.8803 53.3C11.8816 53.3 11.8828 53.3 11.884 53.3C11.8853 53.3 11.8865 53.3 11.8877 53.3C11.8889 53.3 11.8902 53.3 11.8914 53.3C11.8926 53.3 11.8939 53.3 11.8951 53.3C11.8963 53.3 11.8976 53.3 11.8988 53.3C11.9 53.3 11.9013 53.3 11.9025 53.3C11.9037 53.3 11.9049 53.3 11.9062 53.3C11.9074 53.3 11.9086 53.3 11.9099 53.3C11.9111 53.3 11.9123 53.3 11.9136 53.3C11.9148 53.3 11.916 53.3 11.9173 53.3C11.9185 53.3 11.9197 53.3 11.921 53.3C11.9222 53.3 11.9234 53.3 11.9247 53.3C11.9259 53.3 11.9271 53.3 11.9284 53.3C11.9296 53.3 11.9309 53.3 11.9321 53.3C11.9333 53.3 11.9346 53.3 11.9358 53.3C11.937 53.3 11.9383 53.3 11.9395 53.3C11.9407 53.3 11.942 53.3 11.9432 53.3C11.9444 53.3 11.9457 53.3 11.9469 53.3C11.9482 53.3 11.9494 53.3 11.9506 53.3C11.9519 53.3 11.9531 53.3 11.9543 53.3C11.9556 53.3 11.9568 53.3 11.958 53.3C11.9593 53.3 11.9605 53.3 11.9618 53.3C11.963 53.3 11.9642 53.3 11.9655 53.3C11.9667 53.3 11.968 53.3 11.9692 53.3C11.9704 53.3 11.9717 53.3 11.9729 53.3C11.9742 53.3 11.9754 53.3 11.9766 53.3C11.9779 53.3 11.9791 53.3 11.9804 53.3C11.9816 53.3 11.9828 53.3 11.9841 53.3C11.9853 53.3 11.9866 53.3 11.9878 53.3C11.989 53.3 11.9903 53.3 11.9915 53.3C11.9928 53.3 11.994 53.3 11.9952 53.3C11.9965 53.3 11.9977 53.3 11.999 53.3C12.0002 53.3 12.0015 53.3 12.0027 53.3C12.0039 53.3 12.0052 53.3 12.0064 53.3C12.0077 53.3 12.0089 53.3 12.0102 53.3C12.0114 53.3 12.0126 53.3 12.0139 53.3C12.0151 53.3 12.0164 53.3 12.0176 53.3C12.0189 53.3 12.0201 53.3 12.0214 53.3C12.0226 53.3 12.0238 53.3 12.0251 53.3C12.0263 53.3 12.0276 53.3 12.0288 53.3C12.0301 53.3 12.0313 53.3 12.0326 53.3C12.0338 53.3 12.0351 53.3 12.0363 53.3C12.0375 53.3 12.0388 53.3 12.04 53.3C12.0413 53.3 12.0425 53.3 12.0438 53.3C12.045 53.3 12.0463 53.3 12.0475 53.3C12.0488 53.3 12.05 53.3 12.0513 53.3C12.0525 53.3 12.0538 53.3 12.055 53.3C12.0563 53.3 12.0575 53.3 12.0588 53.3C12.06 53.3 12.0613 53.3 12.0625 53.3C12.0638 53.3 12.065 53.3 12.0663 53.3C12.0675 53.3 12.0688 53.3 12.07 53.3C12.0713 53.3 12.0725 53.3 12.0738 53.3C12.075 53.3 12.0763 53.3 12.0775 53.3C12.0788 53.3 12.08 53.3 12.0813 53.3C12.0825 53.3 12.0838 53.3 12.085 53.3C12.0863 53.3 12.0875 53.3 12.0888 53.3C12.09 53.3 12.0913 53.3 12.0925 53.3C12.0938 53.3 12.095 53.3 12.0963 53.3C12.0975 53.3 12.0988 53.3 12.1 53.3C12.1013 53.3 12.1025 53.3 12.1038 53.3C12.1051 53.3 12.1063 53.3 12.1076 53.3C12.1088 53.3 12.1101 53.3 12.1113 53.3C12.1126 53.3 12.1138 53.3 12.1151 53.3C12.1163 53.3 12.1176 53.3 12.1189 53.3C12.1201 53.3 12.1214 53.3 12.1226 53.3C12.1239 53.3 12.1251 53.3 12.1264 53.3C12.1276 53.3 12.1289 53.3 12.1302 53.3C12.1314 53.3 12.1327 53.3 12.1339 53.3C12.1352 53.3 12.1364 53.3 12.1377 53.3C12.139 53.3 12.1402 53.3 12.1415 53.3C12.1427 53.3 12.144 53.3 12.1452 53.3C12.1465 53.3 12.1478 53.3 12.149 53.3C12.1503 53.3 12.1515 53.3 12.1528 53.3C12.1541 53.3 12.1553 53.3 12.1566 53.3C12.1578 53.3 12.1591 53.3 12.1604 53.3C12.1616 53.3 12.1629 53.3 12.1641 53.3C12.1654 53.3 12.1667 53.3 12.1679 53.3C12.1692 53.3 12.1704 53.3 12.1717 53.3C12.173 53.3 12.1742 53.3 12.1755 53.3C12.1767 53.3 12.178 53.3 12.1793 53.3C12.1805 53.3 12.1818 53.3 12.183 53.3C12.1843 53.3 12.1856 53.3 12.1868 53.3C12.1881 53.3 12.1894 53.3 12.1906 53.3C12.1919 53.3 12.1932 53.3 12.1944 53.3C12.1957 53.3 12.1969 53.3 12.1982 53.3C12.1995 53.3 12.2007 53.3 12.202 53.3C12.2033 53.3 12.2045 53.3 12.2058 53.3C12.2071 53.3 12.2083 53.3 12.2096 53.3C12.2109 53.3 12.2121 53.3 12.2134 53.3C12.2146 53.3 12.2159 53.3 12.2172 53.3C12.2184 53.3 12.2197 53.3 12.221 53.3C12.2222 53.3 12.2235 53.3 12.2248 53.3C12.226 53.3 12.2273 53.3 12.2286 53.3C12.2298 53.3 12.2311 53.3 12.2324 53.3C12.2336 53.3 12.2349 53.3 12.2362 53.3C12.2374 53.3 12.2387 53.3 12.24 53.3C12.2413 53.3 12.2425 53.3 12.2438 53.3C12.2451 53.3 12.2463 53.3 12.2476 53.3C12.2489 53.3 12.2501 53.3 12.2514 53.3C12.2527 53.3 12.2539 53.3 12.2552 53.3C12.2565 53.3 12.2578 53.3 12.259 53.3C12.2603 53.3 12.2616 53.3 12.2628 53.3C12.2641 53.3 12.2654 53.3 12.2667 53.3C12.2679 53.3 12.2692 53.3 12.2705 53.3C12.2717 53.3 12.273 53.3 12.2743 53.3C12.2756 53.3 12.2768 53.3 12.2781 53.3C12.2794 53.3 12.2806 53.3 12.2819 53.3C12.2832 53.3 12.2845 53.3 12.2857 53.3C12.287 53.3 12.2883 53.3 12.2896 53.3C12.2908 53.3 12.2921 53.3 12.2934 53.3C12.2946 53.3 12.2959 53.3 12.2972 53.3C12.2985 53.3 12.2997 53.3 12.301 53.3C12.3023 53.3 12.3036 53.3 12.3048 53.3C12.3061 53.3 12.3074 53.3 12.3087 53.3C12.3099 53.3 12.3112 53.3 12.3125 53.3C12.3138 53.3 12.3151 53.3 12.3163 53.3C12.3176 53.3 12.3189 53.3 12.3202 53.3C12.3214 53.3 12.3227 53.3 12.324 53.3C12.3253 53.3 12.3265 53.3 12.3278 53.3C12.3291 53.3 12.3304 53.3 12.3317 53.3C12.3329 53.3 12.3342 53.3 12.3355 53.3C12.3368 53.3 12.338 53.3 12.3393 53.3C12.3406 53.3 12.3419 53.3 12.3432 53.3C12.3444 53.3 12.3457 53.3 12.347 53.3C12.3483 53.3 12.3496 53.3 12.3508 53.3C12.3521 53.3 12.3534 53.3 12.3547 53.3C12.356 53.3 12.3572 53.3 12.3585 53.3C12.3598 53.3 12.3611 53.3 12.3624 53.3C12.3637 53.3 12.3649 53.3 12.3662 53.3C12.3675 53.3 12.3688 53.3 12.3701 53.3C12.3713 53.3 12.3726 53.3 12.3739 53.3C12.3752 53.3 12.3765 53.3 12.3778 53.3C12.379 53.3 12.3803 53.3 12.3816 53.3C12.3829 53.3 12.3842 53.3 12.3855 53.3C12.3867 53.3 12.388 53.3 12.3893 53.3C12.3906 53.3 12.3919 53.3 12.3932 53.3C12.3944 53.3 12.3957 53.3 12.397 53.3C12.3983 53.3 12.3996 53.3 12.4009 53.3C12.4022 53.3 12.4034 53.3 12.4047 53.3C12.406 53.3 12.4073 53.3 12.4086 53.3C12.4099 53.3 12.4112 53.3 12.4124 53.3C12.4137 53.3 12.415 53.3 12.4163 53.3C12.4176 53.3 12.4189 53.3 12.4202 53.3C12.4215 53.3 12.4227 53.3 12.424 53.3C12.4253 53.3 12.4266 53.3 12.4279 53.3C12.4292 53.3 12.4305 53.3 12.4318 53.3C12.433 53.3 12.4343 53.3 12.4356 53.3C12.4369 53.3 12.4382 53.3 12.4395 53.3C12.4408 53.3 12.4421 53.3 12.4434 53.3C12.4447 53.3 12.4459 53.3 12.4472 53.3C12.4485 53.3 12.4498 53.3 12.4511 53.3C12.4524 53.3 12.4537 53.3 12.455 53.3C12.4563 53.3 12.4576 53.3 12.4589 53.3C12.4601 53.3 12.4614 53.3 12.4627 53.3C12.464 53.3 12.4653 53.3 12.4666 53.3C12.4679 53.3 12.4692 53.3 12.4705 53.3C12.4718 53.3 12.4731 53.3 12.4744 53.3C12.4757 53.3 12.4769 53.3 12.4782 53.3C12.4795 53.3 12.4808 53.3 12.4821 53.3C12.4834 53.3 12.4847 53.3 12.486 53.3C12.4873 53.3 12.4886 53.3 12.4899 53.3C12.4912 53.3 12.4925 53.3 12.4938 53.3C12.4951 53.3 12.4964 53.3 12.4977 53.3C12.499 53.3 12.5002 53.3 12.5015 53.3C12.5028 53.3 12.5041 53.3 12.5054 53.3C12.5067 53.3 12.508 53.3 12.5093 53.3C12.5106 53.3 12.5119 53.3 12.5132 53.3C12.5145 53.3 12.5158 53.3 12.5171 53.3C12.5184 53.3 12.5197 53.3 12.521 53.3C12.5223 53.3 12.5236 53.3 12.5249 53.3C12.5262 53.3 12.5275 53.3 12.5288 53.3C12.5301 53.3 12.5314 53.3 12.5327 53.3C12.534 53.3 12.5353 53.3 12.5366 53.3C12.5379 53.3 12.5392 53.3 12.5405 53.3C12.5418 53.3 12.5431 53.3 12.5444 53.3C12.5457 53.3 12.547 53.3 12.5483 53.3C12.5496 53.3 12.5509 53.3 12.5522 53.3C12.5535 53.3 12.5548 53.3 12.5561 53.3C12.5574 53.3 12.5587 53.3 12.56 53.3V51.3C12.5587 51.3 12.5574 51.3 12.5561 51.3C12.5548 51.3 12.5535 51.3 12.5522 51.3C12.5509 51.3 12.5496 51.3 12.5483 51.3C12.547 51.3 12.5457 51.3 12.5444 51.3C12.5431 51.3 12.5418 51.3 12.5405 51.3C12.5392 51.3 12.5379 51.3 12.5366 51.3C12.5353 51.3 12.534 51.3 12.5327 51.3C12.5314 51.3 12.5301 51.3 12.5288 51.3C12.5275 51.3 12.5262 51.3 12.5249 51.3C12.5236 51.3 12.5223 51.3 12.521 51.3C12.5197 51.3 12.5184 51.3 12.5171 51.3C12.5158 51.3 12.5145 51.3 12.5132 51.3C12.5119 51.3 12.5106 51.3 12.5093 51.3C12.508 51.3 12.5067 51.3 12.5054 51.3C12.5041 51.3 12.5028 51.3 12.5015 51.3C12.5002 51.3 12.499 51.3 12.4977 51.3C12.4964 51.3 12.4951 51.3 12.4938 51.3C12.4925 51.3 12.4912 51.3 12.4899 51.3C12.4886 51.3 12.4873 51.3 12.486 51.3C12.4847 51.3 12.4834 51.3 12.4821 51.3C12.4808 51.3 12.4795 51.3 12.4782 51.3C12.4769 51.3 12.4757 51.3 12.4744 51.3C12.4731 51.3 12.4718 51.3 12.4705 51.3C12.4692 51.3 12.4679 51.3 12.4666 51.3C12.4653 51.3 12.464 51.3 12.4627 51.3C12.4614 51.3 12.4601 51.3 12.4589 51.3C12.4576 51.3 12.4563 51.3 12.455 51.3C12.4537 51.3 12.4524 51.3 12.4511 51.3C12.4498 51.3 12.4485 51.3 12.4472 51.3C12.4459 51.3 12.4447 51.3 12.4434 51.3C12.4421 51.3 12.4408 51.3 12.4395 51.3C12.4382 51.3 12.4369 51.3 12.4356 51.3C12.4343 51.3 12.433 51.3 12.4318 51.3C12.4305 51.3 12.4292 51.3 12.4279 51.3C12.4266 51.3 12.4253 51.3 12.424 51.3C12.4227 51.3 12.4215 51.3 12.4202 51.3C12.4189 51.3 12.4176 51.3 12.4163 51.3C12.415 51.3 12.4137 51.3 12.4124 51.3C12.4112 51.3 12.4099 51.3 12.4086 51.3C12.4073 51.3 12.406 51.3 12.4047 51.3C12.4034 51.3 12.4022 51.3 12.4009 51.3C12.3996 51.3 12.3983 51.3 12.397 51.3C12.3957 51.3 12.3944 51.3 12.3932 51.3C12.3919 51.3 12.3906 51.3 12.3893 51.3C12.388 51.3 12.3867 51.3 12.3855 51.3C12.3842 51.3 12.3829 51.3 12.3816 51.3C12.3803 51.3 12.379 51.3 12.3778 51.3C12.3765 51.3 12.3752 51.3 12.3739 51.3C12.3726 51.3 12.3713 51.3 12.3701 51.3C12.3688 51.3 12.3675 51.3 12.3662 51.3C12.3649 51.3 12.3637 51.3 12.3624 51.3C12.3611 51.3 12.3598 51.3 12.3585 51.3C12.3572 51.3 12.356 51.3 12.3547 51.3C12.3534 51.3 12.3521 51.3 12.3508 51.3C12.3496 51.3 12.3483 51.3 12.347 51.3C12.3457 51.3 12.3444 51.3 12.3432 51.3C12.3419 51.3 12.3406 51.3 12.3393 51.3C12.338 51.3 12.3368 51.3 12.3355 51.3C12.3342 51.3 12.3329 51.3 12.3317 51.3C12.3304 51.3 12.3291 51.3 12.3278 51.3C12.3265 51.3 12.3253 51.3 12.324 51.3C12.3227 51.3 12.3214 51.3 12.3202 51.3C12.3189 51.3 12.3176 51.3 12.3163 51.3C12.3151 51.3 12.3138 51.3 12.3125 51.3C12.3112 51.3 12.3099 51.3 12.3087 51.3C12.3074 51.3 12.3061 51.3 12.3048 51.3C12.3036 51.3 12.3023 51.3 12.301 51.3C12.2997 51.3 12.2985 51.3 12.2972 51.3C12.2959 51.3 12.2946 51.3 12.2934 51.3C12.2921 51.3 12.2908 51.3 12.2896 51.3C12.2883 51.3 12.287 51.3 12.2857 51.3C12.2845 51.3 12.2832 51.3 12.2819 51.3C12.2806 51.3 12.2794 51.3 12.2781 51.3C12.2768 51.3 12.2756 51.3 12.2743 51.3C12.273 51.3 12.2717 51.3 12.2705 51.3C12.2692 51.3 12.2679 51.3 12.2667 51.3C12.2654 51.3 12.2641 51.3 12.2628 51.3C12.2616 51.3 12.2603 51.3 12.259 51.3C12.2578 51.3 12.2565 51.3 12.2552 51.3C12.2539 51.3 12.2527 51.3 12.2514 51.3C12.2501 51.3 12.2489 51.3 12.2476 51.3C12.2463 51.3 12.2451 51.3 12.2438 51.3C12.2425 51.3 12.2413 51.3 12.24 51.3C12.2387 51.3 12.2374 51.3 12.2362 51.3C12.2349 51.3 12.2336 51.3 12.2324 51.3C12.2311 51.3 12.2298 51.3 12.2286 51.3C12.2273 51.3 12.226 51.3 12.2248 51.3C12.2235 51.3 12.2222 51.3 12.221 51.3C12.2197 51.3 12.2184 51.3 12.2172 51.3C12.2159 51.3 12.2146 51.3 12.2134 51.3C12.2121 51.3 12.2109 51.3 12.2096 51.3C12.2083 51.3 12.2071 51.3 12.2058 51.3C12.2045 51.3 12.2033 51.3 12.202 51.3C12.2007 51.3 12.1995 51.3 12.1982 51.3C12.1969 51.3 12.1957 51.3 12.1944 51.3C12.1932 51.3 12.1919 51.3 12.1906 51.3C12.1894 51.3 12.1881 51.3 12.1868 51.3C12.1856 51.3 12.1843 51.3 12.183 51.3C12.1818 51.3 12.1805 51.3 12.1793 51.3C12.178 51.3 12.1767 51.3 12.1755 51.3C12.1742 51.3 12.173 51.3 12.1717 51.3C12.1704 51.3 12.1692 51.3 12.1679 51.3C12.1667 51.3 12.1654 51.3 12.1641 51.3C12.1629 51.3 12.1616 51.3 12.1604 51.3C12.1591 51.3 12.1578 51.3 12.1566 51.3C12.1553 51.3 12.1541 51.3 12.1528 51.3C12.1515 51.3 12.1503 51.3 12.149 51.3C12.1478 51.3 12.1465 51.3 12.1452 51.3C12.144 51.3 12.1427 51.3 12.1415 51.3C12.1402 51.3 12.139 51.3 12.1377 51.3C12.1364 51.3 12.1352 51.3 12.1339 51.3C12.1327 51.3 12.1314 51.3 12.1302 51.3C12.1289 51.3 12.1276 51.3 12.1264 51.3C12.1251 51.3 12.1239 51.3 12.1226 51.3C12.1214 51.3 12.1201 51.3 12.1189 51.3C12.1176 51.3 12.1163 51.3 12.1151 51.3C12.1138 51.3 12.1126 51.3 12.1113 51.3C12.1101 51.3 12.1088 51.3 12.1076 51.3C12.1063 51.3 12.1051 51.3 12.1038 51.3C12.1025 51.3 12.1013 51.3 12.1 51.3C12.0988 51.3 12.0975 51.3 12.0963 51.3C12.095 51.3 12.0938 51.3 12.0925 51.3C12.0913 51.3 12.09 51.3 12.0888 51.3C12.0875 51.3 12.0863 51.3 12.085 51.3C12.0838 51.3 12.0825 51.3 12.0813 51.3C12.08 51.3 12.0788 51.3 12.0775 51.3C12.0763 51.3 12.075 51.3 12.0738 51.3C12.0725 51.3 12.0713 51.3 12.07 51.3C12.0688 51.3 12.0675 51.3 12.0663 51.3C12.065 51.3 12.0638 51.3 12.0625 51.3C12.0613 51.3 12.06 51.3 12.0588 51.3C12.0575 51.3 12.0563 51.3 12.055 51.3C12.0538 51.3 12.0525 51.3 12.0513 51.3C12.05 51.3 12.0488 51.3 12.0475 51.3C12.0463 51.3 12.045 51.3 12.0438 51.3C12.0425 51.3 12.0413 51.3 12.04 51.3C12.0388 51.3 12.0375 51.3 12.0363 51.3C12.0351 51.3 12.0338 51.3 12.0326 51.3C12.0313 51.3 12.0301 51.3 12.0288 51.3C12.0276 51.3 12.0263 51.3 12.0251 51.3C12.0238 51.3 12.0226 51.3 12.0214 51.3C12.0201 51.3 12.0189 51.3 12.0176 51.3C12.0164 51.3 12.0151 51.3 12.0139 51.3C12.0126 51.3 12.0114 51.3 12.0102 51.3C12.0089 51.3 12.0077 51.3 12.0064 51.3C12.0052 51.3 12.0039 51.3 12.0027 51.3C12.0015 51.3 12.0002 51.3 11.999 51.3C11.9977 51.3 11.9965 51.3 11.9952 51.3C11.994 51.3 11.9928 51.3 11.9915 51.3C11.9903 51.3 11.989 51.3 11.9878 51.3C11.9866 51.3 11.9853 51.3 11.9841 51.3C11.9828 51.3 11.9816 51.3 11.9804 51.3C11.9791 51.3 11.9779 51.3 11.9766 51.3C11.9754 51.3 11.9742 51.3 11.9729 51.3C11.9717 51.3 11.9704 51.3 11.9692 51.3C11.968 51.3 11.9667 51.3 11.9655 51.3C11.9642 51.3 11.963 51.3 11.9618 51.3C11.9605 51.3 11.9593 51.3 11.958 51.3C11.9568 51.3 11.9556 51.3 11.9543 51.3C11.9531 51.3 11.9519 51.3 11.9506 51.3C11.9494 51.3 11.9482 51.3 11.9469 51.3C11.9457 51.3 11.9444 51.3 11.9432 51.3C11.942 51.3 11.9407 51.3 11.9395 51.3C11.9383 51.3 11.937 51.3 11.9358 51.3C11.9346 51.3 11.9333 51.3 11.9321 51.3C11.9309 51.3 11.9296 51.3 11.9284 51.3C11.9271 51.3 11.9259 51.3 11.9247 51.3C11.9234 51.3 11.9222 51.3 11.921 51.3C11.9197 51.3 11.9185 51.3 11.9173 51.3C11.916 51.3 11.9148 51.3 11.9136 51.3C11.9123 51.3 11.9111 51.3 11.9099 51.3C11.9086 51.3 11.9074 51.3 11.9062 51.3C11.9049 51.3 11.9037 51.3 11.9025 51.3C11.9013 51.3 11.9 51.3 11.8988 51.3C11.8976 51.3 11.8963 51.3 11.8951 51.3C11.8939 51.3 11.8926 51.3 11.8914 51.3C11.8902 51.3 11.8889 51.3 11.8877 51.3C11.8865 51.3 11.8853 51.3 11.884 51.3C11.8828 51.3 11.8816 51.3 11.8803 51.3C11.8791 51.3 11.8779 51.3 11.8767 51.3C11.8754 51.3 11.8742 51.3 11.873 51.3C11.8717 51.3 11.8705 51.3 11.8693 51.3C11.8681 51.3 11.8668 51.3 11.8656 51.3C11.8644 51.3 11.8631 51.3 11.8619 51.3C11.8607 51.3 11.8595 51.3 11.8582 51.3C11.857 51.3 11.8558 51.3 11.8546 51.3C11.8533 51.3 11.8521 51.3 11.8509 51.3C11.8496 51.3 11.8484 51.3 11.8472 51.3C11.846 51.3 11.8447 51.3 11.8435 51.3C11.8423 51.3 11.8411 51.3 11.8398 51.3C11.8386 51.3 11.8374 51.3 11.8362 51.3C11.8349 51.3 11.8337 51.3 11.8325 51.3C11.8313 51.3 11.8301 51.3 11.8288 51.3C11.8276 51.3 11.8264 51.3 11.8252 51.3C11.8239 51.3 11.8227 51.3 11.8215 51.3C11.8203 51.3 11.819 51.3 11.8178 51.3C11.8166 51.3 11.8154 51.3 11.8142 51.3C11.8129 51.3 11.8117 51.3 11.8105 51.3C11.8093 51.3 11.808 51.3 11.8068 51.3C11.8056 51.3 11.8044 51.3 11.8032 51.3C11.8019 51.3 11.8007 51.3 11.7995 51.3C11.7983 51.3 11.7971 51.3 11.7958 51.3C11.7946 51.3 11.7934 51.3 11.7922 51.3C11.791 51.3 11.7897 51.3 11.7885 51.3C11.7873 51.3 11.7861 51.3 11.7849 51.3C11.7837 51.3 11.7824 51.3 11.7812 51.3C11.78 51.3 11.7788 51.3 11.7776 51.3C11.7763 51.3 11.7751 51.3 11.7739 51.3C11.7727 51.3 11.7715 51.3 11.7703 51.3C11.769 51.3 11.7678 51.3 11.7666 51.3C11.7654 51.3 11.7642 51.3 11.763 51.3C11.7617 51.3 11.7605 51.3 11.7593 51.3C11.7581 51.3 11.7569 51.3 11.7557 51.3C11.7544 51.3 11.7532 51.3 11.752 51.3C11.7508 51.3 11.7496 51.3 11.7484 51.3C11.7472 51.3 11.7459 51.3 11.7447 51.3C11.7435 51.3 11.7423 51.3 11.7411 51.3C11.7399 51.3 11.7387 51.3 11.7374 51.3C11.7362 51.3 11.735 51.3 11.7338 51.3C11.7326 51.3 11.7314 51.3 11.7302 51.3C11.729 51.3 11.7277 51.3 11.7265 51.3C11.7253 51.3 11.7241 51.3 11.7229 51.3C11.7217 51.3 11.7205 51.3 11.7193 51.3C11.718 51.3 11.7168 51.3 11.7156 51.3C11.7144 51.3 11.7132 51.3 11.712 51.3C11.7108 51.3 11.7096 51.3 11.7084 51.3C11.7072 51.3 11.7059 51.3 11.7047 51.3C11.7035 51.3 11.7023 51.3 11.7011 51.3C11.6999 51.3 11.6987 51.3 11.6975 51.3C11.6963 51.3 11.6951 51.3 11.6939 51.3C11.6926 51.3 11.6914 51.3 11.6902 51.3C11.689 51.3 11.6878 51.3 11.6866 51.3C11.6854 51.3 11.6842 51.3 11.683 51.3C11.6818 51.3 11.6806 51.3 11.6794 51.3C11.6782 51.3 11.6769 51.3 11.6757 51.3C11.6745 51.3 11.6733 51.3 11.6721 51.3C11.6709 51.3 11.6697 51.3 11.6685 51.3C11.6673 51.3 11.6661 51.3 11.6649 51.3C11.6637 51.3 11.6625 51.3 11.6613 51.3C11.6601 51.3 11.6589 51.3 11.6577 51.3C11.6565 51.3 11.6552 51.3 11.654 51.3C11.6528 51.3 11.6516 51.3 11.6504 51.3C11.6492 51.3 11.648 51.3 11.6468 51.3C11.6456 51.3 11.6444 51.3 11.6432 51.3C11.642 51.3 11.6408 51.3 11.6396 51.3C11.6384 51.3 11.6372 51.3 11.636 51.3C11.6348 51.3 11.6336 51.3 11.6324 51.3C11.6312 51.3 11.63 51.3 11.6288 51.3C11.6276 51.3 11.6264 51.3 11.6252 51.3C11.624 51.3 11.6228 51.3 11.6216 51.3C11.6204 51.3 11.6192 51.3 11.618 51.3C11.6168 51.3 11.6156 51.3 11.6144 51.3C11.6132 51.3 11.612 51.3 11.6108 51.3C11.6096 51.3 11.6084 51.3 11.6072 51.3C11.606 51.3 11.6048 51.3 11.6036 51.3C11.6024 51.3 11.6012 51.3 11.6 51.3C11.5988 51.3 11.5976 51.3 11.5964 51.3C11.5952 51.3 11.594 51.3 11.5928 51.3C11.5916 51.3 11.5904 51.3 11.5892 51.3C11.588 51.3 11.5868 51.3 11.5856 51.3C11.5844 51.3 11.5832 51.3 11.582 51.3C11.5809 51.3 11.5797 51.3 11.5785 51.3C11.5773 51.3 11.5761 51.3 11.5749 51.3C11.5737 51.3 11.5725 51.3 11.5713 51.3C11.5701 51.3 11.5689 51.3 11.5677 51.3C11.5665 51.3 11.5653 51.3 11.5641 51.3C11.5629 51.3 11.5617 51.3 11.5605 51.3C11.5593 51.3 11.5582 51.3 11.557 51.3C11.5558 51.3 11.5546 51.3 11.5534 51.3C11.5522 51.3 11.551 51.3 11.5498 51.3C11.5486 51.3 11.5474 51.3 11.5462 51.3C11.545 51.3 11.5438 51.3 11.5427 51.3C11.5415 51.3 11.5403 51.3 11.5391 51.3C11.5379 51.3 11.5367 51.3 11.5355 51.3C11.5343 51.3 11.5331 51.3 11.5319 51.3C11.5307 51.3 11.5296 51.3 11.5284 51.3C11.5272 51.3 11.526 51.3 11.5248 51.3C11.5236 51.3 11.5224 51.3 11.5212 51.3C11.52 51.3 11.5189 51.3 11.5177 51.3C11.5165 51.3 11.5153 51.3 11.5141 51.3C11.5129 51.3 11.5117 51.3 11.5105 51.3C11.5094 51.3 11.5082 51.3 11.507 51.3C11.5058 51.3 11.5046 51.3 11.5034 51.3C11.5022 51.3 11.501 51.3 11.4999 51.3C11.4987 51.3 11.4975 51.3 11.4963 51.3C11.4951 51.3 11.4939 51.3 11.4927 51.3C11.4916 51.3 11.4904 51.3 11.4892 51.3C11.488 51.3 11.4868 51.3 11.4856 51.3C11.4844 51.3 11.4833 51.3 11.4821 51.3C11.4809 51.3 11.4797 51.3 11.4785 51.3C11.4773 51.3 11.4762 51.3 11.475 51.3C11.4738 51.3 11.4726 51.3 11.4714 51.3C11.4702 51.3 11.469 51.3 11.4679 51.3C11.4667 51.3 11.4655 51.3 11.4643 51.3C11.4631 51.3 11.462 51.3 11.4608 51.3C11.4596 51.3 11.4584 51.3 11.4572 51.3C11.456 51.3 11.4549 51.3 11.4537 51.3C11.4525 51.3 11.4513 51.3 11.4501 51.3C11.449 51.3 11.4478 51.3 11.4466 51.3C11.4454 51.3 11.4442 51.3 11.4431 51.3C11.4419 51.3 11.4407 51.3 11.4395 51.3C11.4383 51.3 11.4372 51.3 11.436 51.3C11.4348 51.3 11.4336 51.3 11.4324 51.3C11.4313 51.3 11.4301 51.3 11.4289 51.3C11.4277 51.3 11.4265 51.3 11.4254 51.3C11.4242 51.3 11.423 51.3 11.4218 51.3C11.4207 51.3 11.4195 51.3 11.4183 51.3C11.4171 51.3 11.416 51.3 11.4148 51.3C11.4136 51.3 11.4124 51.3 11.4112 51.3C11.4101 51.3 11.4089 51.3 11.4077 51.3C11.4065 51.3 11.4054 51.3 11.4042 51.3C11.403 51.3 11.4018 51.3 11.4007 51.3C11.3995 51.3 11.3983 51.3 11.3971 51.3C11.396 51.3 11.3948 51.3 11.3936 51.3C11.3924 51.3 11.3913 51.3 11.3901 51.3C11.3889 51.3 11.3877 51.3 11.3866 51.3C11.3854 51.3 11.3842 51.3 11.3831 51.3C11.3819 51.3 11.3807 51.3 11.3795 51.3C11.3784 51.3 11.3772 51.3 11.376 51.3C11.3748 51.3 11.3737 51.3 11.3725 51.3C11.3713 51.3 11.3702 51.3 11.369 51.3C11.3678 51.3 11.3666 51.3 11.3655 51.3C11.3643 51.3 11.3631 51.3 11.362 51.3C11.3608 51.3 11.3596 51.3 11.3584 51.3C11.3573 51.3 11.3561 51.3 11.3549 51.3C11.3538 51.3 11.3526 51.3 11.3514 51.3C11.3503 51.3 11.3491 51.3 11.3479 51.3C11.3468 51.3 11.3456 51.3 11.3444 51.3C11.3432 51.3 11.3421 51.3 11.3409 51.3C11.3397 51.3 11.3386 51.3 11.3374 51.3C11.3362 51.3 11.3351 51.3 11.3339 51.3C11.3327 51.3 11.3316 51.3 11.3304 51.3C11.3292 51.3 11.3281 51.3 11.3269 51.3C11.3257 51.3 11.3246 51.3 11.3234 51.3C11.3222 51.3 11.3211 51.3 11.3199 51.3C11.3187 51.3 11.3176 51.3 11.3164 51.3C11.3152 51.3 11.3141 51.3 11.3129 51.3C11.3117 51.3 11.3106 51.3 11.3094 51.3C11.3083 51.3 11.3071 51.3 11.3059 51.3C11.3048 51.3 11.3036 51.3 11.3024 51.3C11.3013 51.3 11.3001 51.3 11.2989 51.3C11.2978 51.3 11.2966 51.3 11.2955 51.3C11.2943 51.3 11.2931 51.3 11.292 51.3C11.2908 51.3 11.2896 51.3 11.2885 51.3C11.2873 51.3 11.2862 51.3 11.285 51.3C11.2838 51.3 11.2827 51.3 11.2815 51.3C11.2803 51.3 11.2792 51.3 11.278 51.3C11.2769 51.3 11.2757 51.3 11.2745 51.3C11.2734 51.3 11.2722 51.3 11.2711 51.3C11.2699 51.3 11.2687 51.3 11.2676 51.3C11.2664 51.3 11.2653 51.3 11.2641 51.3C11.2629 51.3 11.2618 51.3 11.2606 51.3C11.2595 51.3 11.2583 51.3 11.2571 51.3C11.256 51.3 11.2548 51.3 11.2537 51.3C11.2525 51.3 11.2514 51.3 11.2502 51.3C11.249 51.3 11.2479 51.3 11.2467 51.3C11.2456 51.3 11.2444 51.3 11.2433 51.3C11.2421 51.3 11.2409 51.3 11.2398 51.3C11.2386 51.3 11.2375 51.3 11.2363 51.3C11.2352 51.3 11.234 51.3 11.2329 51.3C11.2317 51.3 11.2305 51.3 11.2294 51.3C11.2282 51.3 11.2271 51.3 11.2259 51.3C11.2248 51.3 11.2236 51.3 11.2225 51.3C11.2213 51.3 11.2201 51.3 11.219 51.3C11.2178 51.3 11.2167 51.3 11.2155 51.3C11.2144 51.3 11.2132 51.3 11.2121 51.3C11.2109 51.3 11.2098 51.3 11.2086 51.3C11.2075 51.3 11.2063 51.3 11.2052 51.3C11.204 51.3 11.2029 51.3 11.2017 51.3C11.2005 51.3 11.1994 51.3 11.1982 51.3C11.1971 51.3 11.1959 51.3 11.1948 51.3C11.1936 51.3 11.1925 51.3 11.1913 51.3C11.1902 51.3 11.189 51.3 11.1879 51.3C11.1867 51.3 11.1856 51.3 11.1844 51.3C11.1833 51.3 11.1821 51.3 11.181 51.3C11.1798 51.3 11.1787 51.3 11.1775 51.3C11.1764 51.3 11.1752 51.3 11.1741 51.3C11.1729 51.3 11.1718 51.3 11.1706 51.3C11.1695 51.3 11.1684 51.3 11.1672 51.3C11.1661 51.3 11.1649 51.3 11.1638 51.3C11.1626 51.3 11.1615 51.3 11.1603 51.3C11.1592 51.3 11.158 51.3 11.1569 51.3C11.1557 51.3 11.1546 51.3 11.1534 51.3C11.1523 51.3 11.1511 51.3 11.15 51.3C11.1489 51.3 11.1477 51.3 11.1466 51.3C11.1454 51.3 11.1443 51.3 11.1431 51.3C11.142 51.3 11.1408 51.3 11.1397 51.3C11.1385 51.3 11.1374 51.3 11.1363 51.3C11.1351 51.3 11.134 51.3 11.1328 51.3C11.1317 51.3 11.1305 51.3 11.1294 51.3C11.1283 51.3 11.1271 51.3 11.126 51.3C11.1248 51.3 11.1237 51.3 11.1225 51.3C11.1214 51.3 11.1203 51.3 11.1191 51.3C11.118 51.3 11.1168 51.3 11.1157 51.3C11.1145 51.3 11.1134 51.3 11.1123 51.3C11.1111 51.3 11.11 51.3 11.1088 51.3C11.1077 51.3 11.1066 51.3 11.1054 51.3C11.1043 51.3 11.1031 51.3 11.102 51.3C11.1009 51.3 11.0997 51.3 11.0986 51.3C11.0974 51.3 11.0963 51.3 11.0952 51.3C11.094 51.3 11.0929 51.3 11.0917 51.3C11.0906 51.3 11.0895 51.3 11.0883 51.3C11.0872 51.3 11.086 51.3 11.0849 51.3C11.0838 51.3 11.0826 51.3 11.0815 51.3C11.0804 51.3 11.0792 51.3 11.0781 51.3C11.0769 51.3 11.0758 51.3 11.0747 51.3C11.0735 51.3 11.0724 51.3 11.0713 51.3C11.0701 51.3 11.069 51.3 11.0679 51.3C11.0667 51.3 11.0656 51.3 11.0644 51.3C11.0633 51.3 11.0622 51.3 11.061 51.3C11.0599 51.3 11.0588 51.3 11.0576 51.3C11.0565 51.3 11.0554 51.3 11.0542 51.3C11.0531 51.3 11.052 51.3 11.0508 51.3C11.0497 51.3 11.0486 51.3 11.0474 51.3C11.0463 51.3 11.0452 51.3 11.044 51.3C11.0429 51.3 11.0418 51.3 11.0406 51.3C11.0395 51.3 11.0384 51.3 11.0372 51.3C11.0361 51.3 11.035 51.3 11.0338 51.3C11.0327 51.3 11.0316 51.3 11.0304 51.3C11.0293 51.3 11.0282 51.3 11.027 51.3C11.0259 51.3 11.0248 51.3 11.0236 51.3C11.0225 51.3 11.0214 51.3 11.0203 51.3C11.0191 51.3 11.018 51.3 11.0169 51.3C11.0157 51.3 11.0146 51.3 11.0135 51.3C11.0123 51.3 11.0112 51.3 11.0101 51.3C11.009 51.3 11.0078 51.3 11.0067 51.3C11.0056 51.3 11.0044 51.3 11.0033 51.3C11.0022 51.3 11.0011 51.3 10.9999 51.3C10.9988 51.3 10.9977 51.3 10.9965 51.3C10.9954 51.3 10.9943 51.3 10.9932 51.3C10.992 51.3 10.9909 51.3 10.9898 51.3C10.9887 51.3 10.9875 51.3 10.9864 51.3C10.9853 51.3 10.9842 51.3 10.983 51.3C10.9819 51.3 10.9808 51.3 10.9797 51.3C10.9785 51.3 10.9774 51.3 10.9763 51.3C10.9752 51.3 10.974 51.3 10.9729 51.3C10.9718 51.3 10.9707 51.3 10.9695 51.3C10.9684 51.3 10.9673 51.3 10.9662 51.3C10.965 51.3 10.9639 51.3 10.9628 51.3C10.9617 51.3 10.9605 51.3 10.9594 51.3C10.9583 51.3 10.9572 51.3 10.956 51.3C10.9549 51.3 10.9538 51.3 10.9527 51.3C10.9516 51.3 10.9504 51.3 10.9493 51.3C10.9482 51.3 10.9471 51.3 10.9459 51.3C10.9448 51.3 10.9437 51.3 10.9426 51.3C10.9415 51.3 10.9403 51.3 10.9392 51.3C10.9381 51.3 10.937 51.3 10.9359 51.3C10.9347 51.3 10.9336 51.3 10.9325 51.3C10.9314 51.3 10.9303 51.3 10.9291 51.3C10.928 51.3 10.9269 51.3 10.9258 51.3C10.9247 51.3 10.9235 51.3 10.9224 51.3C10.9213 51.3 10.9202 51.3 10.9191 51.3C10.918 51.3 10.9168 51.3 10.9157 51.3C10.9146 51.3 10.9135 51.3 10.9124 51.3C10.9112 51.3 10.9101 51.3 10.909 51.3C10.9079 51.3 10.9068 51.3 10.9057 51.3C10.9045 51.3 10.9034 51.3 10.9023 51.3C10.9012 51.3 10.9001 51.3 10.899 51.3C10.8979 51.3 10.8967 51.3 10.8956 51.3C10.8945 51.3 10.8934 51.3 10.8923 51.3C10.8912 51.3 10.89 51.3 10.8889 51.3C10.8878 51.3 10.8867 51.3 10.8856 51.3C10.8845 51.3 10.8834 51.3 10.8822 51.3C10.8811 51.3 10.88 51.3 10.8789 51.3C10.8778 51.3 10.8767 51.3 10.8756 51.3C10.8745 51.3 10.8733 51.3 10.8722 51.3C10.8711 51.3 10.87 51.3 10.8689 51.3C10.8678 51.3 10.8667 51.3 10.8656 51.3C10.8644 51.3 10.8633 51.3 10.8622 51.3C10.8611 51.3 10.86 51.3 10.8589 51.3C10.8578 51.3 10.8567 51.3 10.8556 51.3C10.8544 51.3 10.8533 51.3 10.8522 51.3C10.8511 51.3 10.85 51.3 10.8489 51.3C10.8478 51.3 10.8467 51.3 10.8456 51.3C10.8445 51.3 10.8434 51.3 10.8422 51.3C10.8411 51.3 10.84 51.3 10.8389 51.3C10.8378 51.3 10.8367 51.3 10.8356 51.3C10.8345 51.3 10.8334 51.3 10.8323 51.3C10.8312 51.3 10.8301 51.3 10.8289 51.3C10.8278 51.3 10.8267 51.3 10.8256 51.3C10.8245 51.3 10.8234 51.3 10.8223 51.3C10.8212 51.3 10.8201 51.3 10.819 51.3C10.8179 51.3 10.8168 51.3 10.8157 51.3C10.8146 51.3 10.8135 51.3 10.8124 51.3C10.8112 51.3 10.8101 51.3 10.809 51.3C10.8079 51.3 10.8068 51.3 10.8057 51.3C10.8046 51.3 10.8035 51.3 10.8024 51.3C10.8013 51.3 10.8002 51.3 10.7991 51.3C10.798 51.3 10.7969 51.3 10.7958 51.3C10.7947 51.3 10.7936 51.3 10.7925 51.3C10.7914 51.3 10.7903 51.3 10.7892 51.3C10.7881 51.3 10.787 51.3 10.7859 51.3C10.7848 51.3 10.7837 51.3 10.7826 51.3C10.7815 51.3 10.7804 51.3 10.7793 51.3C10.7782 51.3 10.7771 51.3 10.776 51.3C10.7749 51.3 10.7738 51.3 10.7727 51.3C10.7716 51.3 10.7705 51.3 10.7694 51.3C10.7683 51.3 10.7672 51.3 10.7661 51.3C10.765 51.3 10.7639 51.3 10.7628 51.3C10.7617 51.3 10.7606 51.3 10.7595 51.3C10.7584 51.3 10.7573 51.3 10.7562 51.3C10.7551 51.3 10.754 51.3 10.7529 51.3C10.7518 51.3 10.7507 51.3 10.7496 51.3C10.7485 51.3 10.7474 51.3 10.7463 51.3C10.7452 51.3 10.7441 51.3 10.743 51.3C10.7419 51.3 10.7408 51.3 10.7397 51.3C10.7386 51.3 10.7375 51.3 10.7364 51.3C10.7353 51.3 10.7342 51.3 10.7331 51.3C10.732 51.3 10.7309 51.3 10.7298 51.3C10.7288 51.3 10.7277 51.3 10.7266 51.3C10.7255 51.3 10.7244 51.3 10.7233 51.3C10.7222 51.3 10.7211 51.3 10.72 51.3V53.3ZM12.6 53.2992C13.2656 53.2726 13.9579 53.2459 14.677 53.2193L14.603 51.2207C13.8821 51.2474 13.1878 51.2741 12.52 51.3008L12.6 53.2992ZM14.677 53.2193C15.397 53.1926 16.117 53.166 16.837 53.1393L16.763 51.1407C16.043 51.1674 15.323 51.194 14.603 51.2207L14.677 53.2193ZM16.8357 53.1394C17.598 53.1121 18.5569 53.058 19.7096 52.9776L19.5704 50.9824C18.4297 51.062 17.4954 51.1145 16.7643 51.1406L16.8357 53.1394ZM19.708 52.9777C20.8784 52.8979 22.3294 52.8047 24.0614 52.6981L23.9386 50.7019C22.204 50.8086 20.7483 50.9021 19.572 50.9823L19.708 52.9777ZM23 51.7V57.1H25V51.7H23ZM33.8047 43.3L33.396 42.3873L32.8047 42.6521V43.3H33.8047ZM33.8047 57.5V58.5H34.8047V57.5H33.8047ZM26.8047 57.5H25.8047V58.5H26.8047V57.5ZM26.8047 36.3V35.3H25.8047V36.3H26.8047ZM33.0047 36.3L33.9931 36.1479L33.8626 35.3H33.0047V36.3ZM33.4047 38.9L32.4163 39.0521L32.6926 40.8479L34.062 39.6537L33.4047 38.9ZM42.4047 35.9H43.4047V34.9H42.4047V35.9ZM42.4047 42.1V43.1H43.4047V42.1H42.4047ZM39.0047 41.1C37.1625 41.1 35.2902 41.5392 33.396 42.3873L34.2134 44.2127C35.8925 43.4608 37.4869 43.1 39.0047 43.1V41.1ZM32.8047 43.3V57.5H34.8047V43.3H32.8047ZM33.8047 56.5H26.8047V58.5H33.8047V56.5ZM27.8047 57.5V36.3H25.8047V57.5H27.8047ZM26.8047 37.3H33.0047V35.3H26.8047V37.3ZM32.0163 36.4521L32.4163 39.0521L34.3931 38.7479L33.9931 36.1479L32.0163 36.4521ZM34.062 39.6537C36.2139 37.777 38.3887 36.9 40.6047 36.9V34.9C37.8073 34.9 35.1822 36.023 32.7474 38.1463L34.062 39.6537ZM40.6047 36.9H42.4047V34.9H40.6047V36.9ZM41.4047 35.9V42.1H43.4047V35.9H41.4047ZM42.4047 41.1H39.0047V43.1H42.4047V41.1ZM45.6031 64.3H44.6031V65.1785L45.4743 65.2917L45.6031 64.3ZM45.6031 59.1V58.1H44.6031V59.1H45.6031ZM51.1631 58.26L50.2949 57.7639L50.2858 57.7798L50.2773 57.796L51.1631 58.26ZM51.0031 55.9L50.0806 56.286L50.0815 56.2881L51.0031 55.9ZM42.8031 36.3V35.3H41.3008L41.8806 36.686L42.8031 36.3ZM50.2031 36.3L51.1417 35.9549L50.9009 35.3H50.2031V36.3ZM55.2031 49.9L54.2645 50.2451L55.2855 53.0221L56.1586 50.1951L55.2031 49.9ZM59.4031 36.3V35.3H58.6653L58.4477 36.0049L59.4031 36.3ZM66.8031 36.3L67.7429 36.6417L68.2308 35.3H66.8031V36.3ZM58.8031 58.3L59.7419 58.6446L59.7429 58.6417L58.8031 58.3ZM55.8031 63.06L55.1469 62.3053L55.1378 62.3135L55.8031 63.06ZM50.8031 63.7C49.4476 63.7 47.7602 63.5717 45.7319 63.3083L45.4743 65.2917C47.5527 65.5616 49.332 65.7 50.8031 65.7V63.7ZM46.6031 64.3V59.1H44.6031V64.3H46.6031ZM45.6031 60.1H49.2031V58.1H45.6031V60.1ZM49.2031 60.1C50.3472 60.1 51.4942 59.7831 52.049 58.724L50.2773 57.796C50.2454 57.8569 50.0857 58.1 49.2031 58.1V60.1ZM52.0314 58.7561C52.5878 57.7823 52.389 56.6146 51.9248 55.5119L50.0815 56.2881C50.4706 57.2121 50.3784 57.6177 50.2949 57.7639L52.0314 58.7561ZM51.9256 55.514L43.7256 35.914L41.8806 36.686L50.0806 56.286L51.9256 55.514ZM42.8031 37.3H50.2031V35.3H42.8031V37.3ZM49.2645 36.6451L54.2645 50.2451L56.1417 49.5549L51.1417 35.9549L49.2645 36.6451ZM56.1586 50.1951L60.3586 36.5951L58.4477 36.0049L54.2477 49.6049L56.1586 50.1951ZM59.4031 37.3H66.8031V35.3H59.4031V37.3ZM65.8633 35.9583L57.8633 57.9583L59.7429 58.6417L67.7429 36.6417L65.8633 35.9583ZM57.8644 57.9554C57.1281 59.9611 56.2071 61.3835 55.1469 62.3054L56.4593 63.8146C57.8525 62.6032 58.9315 60.8523 59.7419 58.6446L57.8644 57.9554ZM55.1378 62.3135C54.1413 63.2017 52.7357 63.7 50.8031 63.7V65.7C53.0839 65.7 55.0116 65.105 56.4685 63.8065L55.1378 62.3135ZM75.0156 42.5L74.7296 41.5418L74.0156 41.7549V42.5H75.0156ZM75.0156 52.1H74.0156V53.1H75.0156V52.1ZM82.2156 42.1L82.9227 41.3929L82.9227 41.3929L82.2156 42.1ZM75.0156 57.5V56.5H74.0156V57.5H75.0156ZM75.0156 64.3V65.3H76.0156V64.3H75.0156ZM68.0156 64.3H67.0156V65.3H68.0156V64.3ZM68.0156 36.3V35.3H67.0156V36.3H68.0156ZM74.2156 36.3L75.1962 36.1039L75.0354 35.3H74.2156V36.3ZM74.6156 38.3L73.635 38.4961L73.9263 39.9526L75.1662 39.1348L74.6156 38.3ZM78.4556 36.5L78.7304 37.4616L78.743 37.4578L78.4556 36.5ZM87.9756 37.54L87.2685 38.2471L87.2685 38.2471L87.9756 37.54ZM87.8956 55.82L88.6027 56.5271L88.6027 56.5271L87.8956 55.82ZM79.8156 40.7C78.2802 40.7 76.5813 40.989 74.7296 41.5418L75.3017 43.4582C77.0233 42.9443 78.5244 42.7 79.8156 42.7V40.7ZM74.0156 42.5V52.1H76.0156V42.5H74.0156ZM75.0156 53.1H81.0156V51.1H75.0156V53.1ZM81.0156 53.1C81.7031 53.1 82.4024 52.9275 82.9227 52.4071C83.4431 51.8868 83.6156 51.1875 83.6156 50.5H81.6156C81.6156 50.8792 81.5215 50.9799 81.5085 50.9929C81.4955 51.0059 81.3948 51.1 81.0156 51.1V53.1ZM83.6156 50.5V43.1H81.6156V50.5H83.6156ZM83.6156 43.1C83.6156 42.4526 83.3892 41.8594 82.9227 41.3929L81.5085 42.8071C81.5754 42.874 81.6156 42.9474 81.6156 43.1H83.6156ZM82.9227 41.3929C82.4563 40.9264 81.863 40.7 81.2156 40.7V42.7C81.3683 42.7 81.4416 42.7402 81.5085 42.8071L82.9227 41.3929ZM81.2156 40.7H79.8156V42.7H81.2156V40.7ZM74.0156 57.5V64.3H76.0156V57.5H74.0156ZM75.0156 63.3H68.0156V65.3H75.0156V63.3ZM69.0156 64.3V36.3H67.0156V64.3H69.0156ZM68.0156 37.3H74.2156V35.3H68.0156V37.3ZM73.235 36.4961L73.635 38.4961L75.5962 38.1039L75.1962 36.1039L73.235 36.4961ZM75.1662 39.1348C76.3434 38.3583 77.5312 37.8041 78.7303 37.4615L78.1809 35.5385C76.7667 35.9425 75.3945 36.5883 74.065 37.4652L75.1662 39.1348ZM78.743 37.4578C80.0273 37.0725 81.0436 36.9 81.8156 36.9V34.9C80.7743 34.9 79.5506 35.1275 78.1683 35.5422L78.743 37.4578ZM81.8156 36.9H83.6156V34.9H81.8156V36.9ZM83.6156 36.9C85.2131 36.9 86.395 37.3736 87.2685 38.2471L88.6827 36.8329C87.3696 35.5198 85.6448 34.9 83.6156 34.9V36.9ZM87.2685 38.2471C88.1421 39.1206 88.6156 40.3025 88.6156 41.9H90.6156C90.6156 39.8708 89.9959 38.146 88.6827 36.8329L87.2685 38.2471ZM88.6156 41.9V51.1H90.6156V41.9H88.6156ZM88.6156 51.1C88.6156 52.9004 88.1058 54.1956 87.1885 55.1129L88.6027 56.5271C89.9788 55.1511 90.6156 53.2996 90.6156 51.1H88.6156ZM87.1885 55.1129C86.3022 55.9992 85.0238 56.5 83.2156 56.5V58.5C85.4075 58.5 87.249 57.8808 88.6027 56.5271L87.1885 55.1129ZM83.2156 56.5H75.0156V58.5H83.2156V56.5ZM108.011 57.5L108.113 58.4947L109.011 58.4022V57.5H108.011ZM96.0509 56.26L96.758 55.5529L96.758 55.5529L96.0509 56.26ZM94.4109 41.7H95.4109V40.7H94.4109V41.7ZM92.0109 41.7H91.0109V42.7H92.0109V41.7ZM92.0109 36.3V35.3H91.0109V36.3H92.0109ZM94.4109 36.3V37.3H95.2581L95.3973 36.4644L94.4109 36.3ZM95.2109 31.5V30.5H94.3638L94.2245 31.3356L95.2109 31.5ZM101.411 31.5H102.411V30.5H101.411V31.5ZM101.411 36.3H100.411V37.3H101.411V36.3ZM106.411 36.3H107.411V35.3H106.411V36.3ZM106.411 41.7V42.7H107.411V41.7H106.411ZM101.411 41.7V40.7H100.411V41.7H101.411ZM101.811 51.9L101.104 52.6071L101.104 52.6071L101.811 51.9ZM108.011 52.3H109.011V51.3H108.011V52.3ZM107.908 56.5053C105.354 56.7686 102.855 56.9 100.411 56.9V58.9C102.927 58.9 105.494 58.7647 108.113 58.4947L107.908 56.5053ZM100.411 56.9C98.8134 56.9 97.6316 56.4264 96.758 55.5529L95.3438 56.9671C96.657 58.2802 98.3818 58.9 100.411 58.9V56.9ZM96.758 55.5529C95.8845 54.6794 95.4109 53.4975 95.4109 51.9H93.4109C93.4109 53.9292 94.0307 55.654 95.3438 56.9671L96.758 55.5529ZM95.4109 51.9V41.7H93.4109V51.9H95.4109ZM94.4109 40.7H92.0109V42.7H94.4109V40.7ZM93.0109 41.7V36.3H91.0109V41.7H93.0109ZM92.0109 37.3H94.4109V35.3H92.0109V37.3ZM95.3973 36.4644L96.1973 31.6644L94.2245 31.3356L93.4245 36.1356L95.3973 36.4644ZM95.2109 32.5H101.411V30.5H95.2109V32.5ZM100.411 31.5V36.3H102.411V31.5H100.411ZM101.411 37.3H106.411V35.3H101.411V37.3ZM105.411 36.3V41.7H107.411V36.3H105.411ZM106.411 40.7H101.411V42.7H106.411V40.7ZM100.411 41.7V50.9H102.411V41.7H100.411ZM100.411 50.9C100.411 51.5474 100.637 52.1406 101.104 52.6071L102.518 51.1929C102.451 51.126 102.411 51.0526 102.411 50.9H100.411ZM101.104 52.6071C101.57 53.0736 102.164 53.3 102.811 53.3V51.3C102.658 51.3 102.585 51.2598 102.518 51.1929L101.104 52.6071ZM102.811 53.3H108.011V51.3H102.811V53.3ZM107.011 52.3V57.5H109.011V52.3H107.011ZM129.927 56.22L130.634 56.9271L130.634 56.9271L129.927 56.22ZM111.327 56.22L110.611 56.9187L110.62 56.9272L110.628 56.9354L111.327 56.22ZM111.327 37.62L112.034 38.3271L112.034 38.3271L111.327 37.62ZM129.927 37.62L129.212 38.3187L129.22 38.3272L129.228 38.3354L129.927 37.62ZM130.647 51.5C130.647 53.3004 130.137 54.5956 129.22 55.5129L130.634 56.9271C132.01 55.5511 132.647 53.6996 132.647 51.5H130.647ZM129.22 55.5129C128.333 56.3992 127.055 56.9 125.247 56.9V58.9C127.439 58.9 129.28 58.2808 130.634 56.9271L129.22 55.5129ZM125.247 56.9H116.047V58.9H125.247V56.9ZM116.047 56.9C114.24 56.9 112.942 56.3995 112.026 55.5046L110.628 56.9354C112.005 58.2805 113.854 58.9 116.047 58.9V56.9ZM112.042 55.5213C111.147 54.6051 110.647 53.307 110.647 51.5H108.647C108.647 53.693 109.266 55.5416 110.611 56.9187L112.042 55.5213ZM110.647 51.5V42.3H108.647V51.5H110.647ZM110.647 42.3C110.647 40.4919 111.148 39.2134 112.034 38.3271L110.62 36.9129C109.266 38.2666 108.647 40.1081 108.647 42.3H110.647ZM112.034 38.3271C112.951 37.4098 114.246 36.9 116.047 36.9V34.9C113.847 34.9 111.996 35.5369 110.62 36.9129L112.034 38.3271ZM116.047 36.9H125.247V34.9H116.047V36.9ZM125.247 36.9C127.048 36.9 128.324 37.4101 129.212 38.3187L130.642 36.9213C129.29 35.5366 127.445 34.9 125.247 34.9V36.9ZM129.228 38.3354C130.137 39.2229 130.647 40.4985 130.647 42.3H132.647C132.647 40.1015 132.01 38.2571 130.626 36.9046L129.228 38.3354ZM130.647 42.3V51.5H132.647V42.3H130.647ZM125.647 42.9C125.647 42.2125 125.474 41.5132 124.954 40.9929C124.434 40.4725 123.734 40.3 123.047 40.3V42.3C123.426 42.3 123.527 42.3941 123.54 42.4071C123.553 42.4201 123.647 42.5208 123.647 42.9H125.647ZM123.047 40.3H118.247V42.3H123.047V40.3ZM118.247 40.3C117.559 40.3 116.86 40.4725 116.34 40.9929C115.819 41.5132 115.647 42.2125 115.647 42.9H117.647C117.647 42.5208 117.741 42.4201 117.754 42.4071C117.767 42.3941 117.868 42.3 118.247 42.3V40.3ZM115.647 42.9V50.9H117.647V42.9H115.647ZM115.647 50.9C115.647 51.5875 115.819 52.2868 116.34 52.8071C116.86 53.3275 117.559 53.5 118.247 53.5V51.5C117.868 51.5 117.767 51.4059 117.754 51.3929C117.741 51.3799 117.647 51.2792 117.647 50.9H115.647ZM118.247 53.5H123.047V51.5H118.247V53.5ZM123.047 53.5C123.734 53.5 124.434 53.3275 124.954 52.8071C125.474 52.2868 125.647 51.5875 125.647 50.9H123.647C123.647 51.2792 123.553 51.3799 123.54 51.3929C123.527 51.4059 123.426 51.5 123.047 51.5V53.5ZM125.647 50.9V42.9H123.647V50.9H125.647Z" fill="#001A40"/>
<path d="M161 43.3L160.591 42.3873L160 42.6521V43.3H161ZM161 57.5V58.5H162V57.5H161ZM154 57.5H153V58.5H154V57.5ZM154 36.3V35.3H153V36.3H154ZM160.2 36.3L161.188 36.1479L161.058 35.3H160.2V36.3ZM160.6 38.9L159.612 39.0521L159.888 40.8479L161.257 39.6537L160.6 38.9ZM169.6 35.9H170.6V34.9H169.6V35.9ZM169.6 42.1V43.1H170.6V42.1H169.6ZM166.2 41.1C164.358 41.1 162.485 41.5392 160.591 42.3873L161.409 44.2127C163.088 43.4608 164.682 43.1 166.2 43.1V41.1ZM160 43.3V57.5H162V43.3H160ZM161 56.5H154V58.5H161V56.5ZM155 57.5V36.3H153V57.5H155ZM154 37.3H160.2V35.3H154V37.3ZM159.212 36.4521L159.612 39.0521L161.588 38.7479L161.188 36.1479L159.212 36.4521ZM161.257 39.6537C163.409 37.777 165.584 36.9 167.8 36.9V34.9C165.003 34.9 162.377 36.023 159.943 38.1463L161.257 39.6537ZM167.8 36.9H169.6V34.9H167.8V36.9ZM168.6 35.9V42.1H170.6V35.9H168.6ZM169.6 41.1H166.2V43.1H169.6V41.1ZM186.998 51.3L187.284 52.2582L187.998 52.0451V51.3H186.998ZM186.998 36.3V35.3H185.998V36.3H186.998ZM193.998 36.3H194.998V35.3H193.998V36.3ZM193.998 57.5V58.5H194.998V57.5H193.998ZM187.798 57.5L186.818 57.6961L186.979 58.5H187.798V57.5ZM187.398 55.5L188.379 55.3039L188.088 53.8474L186.848 54.6652L187.398 55.5ZM183.518 57.34L183.793 58.3016L183.806 58.2978L183.518 57.34ZM174.038 56.26L174.746 55.5529L174.746 55.5529L174.038 56.26ZM172.398 36.3V35.3H171.398V36.3H172.398ZM179.398 36.3H180.398V35.3H179.398V36.3ZM179.798 51.7L180.506 50.9929L180.506 50.9929L179.798 51.7ZM182.198 53.1C183.734 53.1 185.433 52.811 187.284 52.2582L186.712 50.3418C184.991 50.8557 183.49 51.1 182.198 51.1V53.1ZM187.998 51.3V36.3H185.998V51.3H187.998ZM186.998 37.3H193.998V35.3H186.998V37.3ZM192.998 36.3V57.5H194.998V36.3H192.998ZM193.998 56.5H187.798V58.5H193.998V56.5ZM188.779 57.3039L188.379 55.3039L186.418 55.6961L186.818 57.6961L188.779 57.3039ZM186.848 54.6652C185.669 55.4425 184.464 56.0123 183.231 56.3822L183.806 58.2978C185.239 57.8677 186.621 57.2109 187.949 56.3348L186.848 54.6652ZM183.244 56.3785C181.987 56.7377 180.978 56.9 180.198 56.9V58.9C181.232 58.9 182.437 58.689 183.793 58.3015L183.244 56.3785ZM180.198 56.9H178.398V58.9H180.198V56.9ZM178.398 56.9C176.801 56.9 175.619 56.4264 174.746 55.5529L173.331 56.9671C174.644 58.2802 176.369 58.9 178.398 58.9V56.9ZM174.746 55.5529C173.872 54.6794 173.398 53.4975 173.398 51.9H171.398C171.398 53.9292 172.018 55.654 173.331 56.9671L174.746 55.5529ZM173.398 51.9V36.3H171.398V51.9H173.398ZM172.398 37.3H179.398V35.3H172.398V37.3ZM178.398 36.3V50.7H180.398V36.3H178.398ZM178.398 50.7C178.398 51.3474 178.625 51.9406 179.091 52.4071L180.506 50.9929C180.439 50.926 180.398 50.8526 180.398 50.7H178.398ZM179.091 52.4071C179.558 52.8736 180.151 53.1 180.798 53.1V51.1C180.646 51.1 180.572 51.0598 180.506 50.9929L179.091 52.4071ZM180.798 53.1H182.198V51.1H180.798V53.1ZM204.984 42.5L204.698 41.5418L203.984 41.7549V42.5H204.984ZM204.984 57.5V58.5H205.984V57.5H204.984ZM197.984 57.5H196.984V58.5H197.984V57.5ZM197.984 36.3V35.3H196.984V36.3H197.984ZM204.184 36.3L205.165 36.1039L205.004 35.3H204.184V36.3ZM204.584 38.3L203.604 38.4961L203.895 39.9526L205.135 39.1348L204.584 38.3ZM208.424 36.5L208.699 37.4616L208.712 37.4578L208.424 36.5ZM217.944 37.54L217.237 38.2471L217.237 38.2471L217.944 37.54ZM219.584 57.5V58.5H220.584V57.5H219.584ZM212.584 57.5H211.584V58.5H212.584V57.5ZM212.184 42.1L212.891 41.3929L212.891 41.3929L212.184 42.1ZM209.784 40.7C208.249 40.7 206.55 40.989 204.698 41.5418L205.27 43.4582C206.992 42.9443 208.493 42.7 209.784 42.7V40.7ZM203.984 42.5V57.5H205.984V42.5H203.984ZM204.984 56.5H197.984V58.5H204.984V56.5ZM198.984 57.5V36.3H196.984V57.5H198.984ZM197.984 37.3H204.184V35.3H197.984V37.3ZM203.204 36.4961L203.604 38.4961L205.565 38.1039L205.165 36.1039L203.204 36.4961ZM205.135 39.1348C206.312 38.3583 207.5 37.8041 208.699 37.4615L208.15 35.5385C206.735 35.9425 205.363 36.5883 204.034 37.4652L205.135 39.1348ZM208.712 37.4578C209.996 37.0725 211.012 36.9 211.784 36.9V34.9C210.743 34.9 209.519 35.1275 208.137 35.5422L208.712 37.4578ZM211.784 36.9H213.584V34.9H211.784V36.9ZM213.584 36.9C215.182 36.9 216.364 37.3736 217.237 38.2471L218.651 36.8329C217.338 35.5198 215.614 34.9 213.584 34.9V36.9ZM217.237 38.2471C218.111 39.1206 218.584 40.3025 218.584 41.9H220.584C220.584 39.8708 219.965 38.146 218.651 36.8329L217.237 38.2471ZM218.584 41.9V57.5H220.584V41.9H218.584ZM219.584 56.5H212.584V58.5H219.584V56.5ZM213.584 57.5V43.1H211.584V57.5H213.584ZM213.584 43.1C213.584 42.4526 213.358 41.8594 212.891 41.3929L211.477 42.8071C211.544 42.874 211.584 42.9474 211.584 43.1H213.584ZM212.891 41.3929C212.425 40.9264 211.832 40.7 211.184 40.7V42.7C211.337 42.7 211.41 42.7402 211.477 42.8071L212.891 41.3929ZM211.184 40.7H209.784V42.7H211.184V40.7ZM241.98 57.1L242.086 58.0943L242.98 57.9988V57.1H241.98ZM224.42 56.26L223.713 56.9671L223.713 56.9671L224.42 56.26ZM224.46 38.02L225.167 38.7271L225.167 38.7271L224.46 38.02ZM241.98 36.3H242.98V35.3H241.98V36.3ZM241.98 41.7V42.7H242.98V41.7H241.98ZM241.98 51.9H242.98V50.8132L241.897 50.9035L241.98 51.9ZM241.873 56.1057C236.912 56.6363 232.548 56.9 228.78 56.9V58.9C232.638 58.9 237.074 58.6303 242.086 58.0943L241.873 56.1057ZM228.78 56.9C227.182 56.9 226 56.4264 225.127 55.5529L223.713 56.9671C225.026 58.2802 226.751 58.9 228.78 58.9V56.9ZM225.127 55.5529C224.253 54.6794 223.78 53.4975 223.78 51.9H221.78C221.78 53.9292 222.399 55.654 223.713 56.9671L225.127 55.5529ZM223.78 51.9V42.7H221.78V51.9H223.78ZM223.78 42.7C223.78 40.8919 224.281 39.6134 225.167 38.7271L223.753 37.3129C222.399 38.6666 221.78 40.5081 221.78 42.7H223.78ZM225.167 38.7271C226.084 37.8098 227.379 37.3 229.18 37.3V35.3C226.98 35.3 225.129 35.9369 223.753 37.3129L225.167 38.7271ZM229.18 37.3H241.98V35.3H229.18V37.3ZM240.98 36.3V41.7H242.98V36.3H240.98ZM241.98 40.7H231.38V42.7H241.98V40.7ZM231.38 40.7C230.692 40.7 229.993 40.8725 229.473 41.3929C228.952 41.9132 228.78 42.6125 228.78 43.3H230.78C230.78 42.9208 230.874 42.8201 230.887 42.8071C230.9 42.7941 231 42.7 231.38 42.7V40.7ZM228.78 43.3V51.1H230.78V43.3H228.78ZM228.78 51.1C228.78 51.7474 229.006 52.3406 229.473 52.8071L230.887 51.3929C230.82 51.326 230.78 51.2526 230.78 51.1H228.78ZM229.473 52.8071C229.939 53.2736 230.532 53.5 231.18 53.5V51.5C231.027 51.5 230.954 51.4598 230.887 51.3929L229.473 52.8071ZM231.18 53.5C233.623 53.5 237.257 53.297 242.063 52.8965L241.897 50.9035C237.103 51.303 233.536 51.5 231.18 51.5V53.5ZM240.98 51.9V57.1H242.98V51.9H240.98ZM252.172 36.7H251.172V37.9272L252.374 37.6794L252.172 36.7ZM265.132 37.54L264.425 38.2471L264.425 38.2471L265.132 37.54ZM266.772 57.5V58.5H267.772V57.5H266.772ZM259.772 57.5H258.772V58.5H259.772V57.5ZM254.172 41.46L254.048 40.4677L254.044 40.4682L254.172 41.46ZM252.172 41.7L252.067 40.7055L251.172 40.7997V41.7H252.172ZM252.172 57.5V58.5H253.172V57.5H252.172ZM245.172 57.5H244.172V58.5H245.172V57.5ZM245.172 29.5V28.5H244.172V29.5H245.172ZM252.172 29.5H253.172V28.5H252.172V29.5ZM252.374 37.6794C254.916 37.1553 257.112 36.9 258.972 36.9V34.9C256.938 34.9 254.601 35.1781 251.97 35.7206L252.374 37.6794ZM258.972 36.9H260.772V34.9H258.972V36.9ZM260.772 36.9C262.369 36.9 263.551 37.3736 264.425 38.2471L265.839 36.8329C264.526 35.5198 262.801 34.9 260.772 34.9V36.9ZM264.425 38.2471C265.298 39.1206 265.772 40.3025 265.772 41.9H267.772C267.772 39.8708 267.152 38.146 265.839 36.8329L264.425 38.2471ZM265.772 41.9V57.5H267.772V41.9H265.772ZM266.772 56.5H259.772V58.5H266.772V56.5ZM260.772 57.5V42.7H258.772V57.5H260.772ZM260.772 42.7C260.772 42.0526 260.545 41.4594 260.079 40.9929L258.665 42.4071C258.732 42.474 258.772 42.5474 258.772 42.7H260.772ZM260.079 40.9929C259.613 40.5264 259.019 40.3 258.372 40.3V42.3C258.525 42.3 258.598 42.3402 258.665 42.4071L260.079 40.9929ZM258.372 40.3H256.972V42.3H258.372V40.3ZM256.972 40.3C255.924 40.3 254.949 40.3551 254.048 40.4677L254.296 42.4523C255.102 42.3516 255.993 42.3 256.972 42.3V40.3ZM254.044 40.4682C253.221 40.5744 252.563 40.6533 252.067 40.7055L252.277 42.6945C252.794 42.64 253.47 42.5589 254.3 42.4518L254.044 40.4682ZM251.172 41.7V57.5H253.172V41.7H251.172ZM252.172 56.5H245.172V58.5H252.172V56.5ZM246.172 57.5V29.5H244.172V57.5H246.172ZM245.172 30.5H252.172V28.5H245.172V30.5ZM251.172 29.5V36.7H253.172V29.5H251.172ZM276.967 44.7H275.967V45.7H276.967V44.7ZM283.767 44.7V45.7H284.767V44.7H283.767ZM289.967 57.1L290.07 58.0947L290.967 58.0017V57.1H289.967ZM271.607 56.26L270.9 56.9671L270.9 56.9671L271.607 56.26ZM271.647 37.62L272.354 38.3271L272.354 38.3271L271.647 37.62ZM289.047 37.62L288.332 38.3187L288.34 38.3272L288.348 38.3354L289.047 37.62ZM290.767 49.7V50.7H291.767V49.7H290.767ZM276.967 49.7V48.7H275.967V49.7H276.967ZM277.367 52.3L278.074 51.5929L278.074 51.5929L277.367 52.3ZM289.967 52.1H290.967V51.0184L289.889 51.1031L289.967 52.1ZM278.567 39.9C277.88 39.9 277.18 40.0725 276.66 40.5929C276.14 41.1132 275.967 41.8125 275.967 42.5H277.967C277.967 42.1208 278.061 42.0201 278.074 42.0071C278.087 41.9941 278.188 41.9 278.567 41.9V39.9ZM275.967 42.5V44.7H277.967V42.5H275.967ZM276.967 45.7H283.767V43.7H276.967V45.7ZM284.767 44.7V42.5H282.767V44.7H284.767ZM284.767 42.5C284.767 41.8125 284.595 41.1132 284.074 40.5929C283.554 40.0725 282.855 39.9 282.167 39.9V41.9C282.546 41.9 282.647 41.9941 282.66 42.0071C282.673 42.0201 282.767 42.1208 282.767 42.5H284.767ZM282.167 39.9H278.567V41.9H282.167V39.9ZM289.864 56.1053C284.744 56.6359 280.113 56.9 275.967 56.9V58.9C280.195 58.9 284.897 58.6308 290.07 58.0947L289.864 56.1053ZM275.967 56.9C274.37 56.9 273.188 56.4264 272.314 55.5529L270.9 56.9671C272.213 58.2802 273.938 58.9 275.967 58.9V56.9ZM272.314 55.5529C271.441 54.6794 270.967 53.4975 270.967 51.9H268.967C268.967 53.9292 269.587 55.654 270.9 56.9671L272.314 55.5529ZM270.967 51.9V42.3H268.967V51.9H270.967ZM270.967 42.3C270.967 40.4919 271.468 39.2134 272.354 38.3271L270.94 36.9129C269.586 38.2666 268.967 40.1081 268.967 42.3H270.967ZM272.354 38.3271C273.272 37.4098 274.567 36.9 276.367 36.9V34.9C274.168 34.9 272.316 35.5369 270.94 36.9129L272.354 38.3271ZM276.367 36.9H284.367V34.9H276.367V36.9ZM284.367 36.9C286.169 36.9 287.444 37.4101 288.332 38.3187L289.763 36.9213C288.41 35.5366 286.566 34.9 284.367 34.9V36.9ZM288.348 38.3354C289.257 39.2229 289.767 40.4985 289.767 42.3H291.767C291.767 40.1015 291.131 38.2571 289.746 36.9046L288.348 38.3354ZM289.767 42.3V49.7H291.767V42.3H289.767ZM290.767 48.7H276.967V50.7H290.767V48.7ZM275.967 49.7V51.3H277.967V49.7H275.967ZM275.967 51.3C275.967 51.9474 276.194 52.5406 276.66 53.0071L278.074 51.5929C278.007 51.526 277.967 51.4526 277.967 51.3H275.967ZM276.66 53.0071C277.127 53.4736 277.72 53.7 278.367 53.7V51.7C278.215 51.7 278.141 51.6598 278.074 51.5929L276.66 53.0071ZM278.367 53.7C281.047 53.7 284.945 53.4975 290.045 53.0969L289.889 51.1031C284.802 51.5025 280.967 51.7 278.367 51.7V53.7ZM288.967 52.1V57.1H290.967V52.1H288.967ZM301.352 43.3L300.943 42.3873L300.352 42.6521V43.3H301.352ZM301.352 57.5V58.5H302.352V57.5H301.352ZM294.352 57.5H293.352V58.5H294.352V57.5ZM294.352 36.3V35.3H293.352V36.3H294.352ZM300.552 36.3L301.54 36.1479L301.409 35.3H300.552V36.3ZM300.952 38.9L299.963 39.0521L300.239 40.8479L301.609 39.6537L300.952 38.9ZM309.952 35.9H310.952V34.9H309.952V35.9ZM309.952 42.1V43.1H310.952V42.1H309.952ZM306.552 41.1C304.709 41.1 302.837 41.5392 300.943 42.3873L301.76 44.2127C303.439 43.4608 305.034 43.1 306.552 43.1V41.1ZM300.352 43.3V57.5H302.352V43.3H300.352ZM301.352 56.5H294.352V58.5H301.352V56.5ZM295.352 57.5V36.3H293.352V57.5H295.352ZM294.352 37.3H300.552V35.3H294.352V37.3ZM299.563 36.4521L299.963 39.0521L301.94 38.7479L301.54 36.1479L299.563 36.4521ZM301.609 39.6537C303.761 37.777 305.936 36.9 308.152 36.9V34.9C305.354 34.9 302.729 36.023 300.294 38.1463L301.609 39.6537ZM308.152 36.9H309.952V34.9H308.152V36.9ZM308.952 35.9V42.1H310.952V35.9H308.952ZM309.952 41.1H306.552V43.1H309.952V41.1ZM311.95 51.9L312.024 50.9027L310.95 50.8234V51.9H311.95ZM325.75 52.1L326.457 52.8071L326.457 52.8071L325.75 52.1ZM326.15 49.7H327.15V48.7H326.15V49.7ZM313.19 48.06L313.897 47.3529L313.897 47.3529L313.19 48.06ZM313.19 37.94L313.897 38.6471L313.897 38.6471L313.19 37.94ZM331.15 36.3H332.15V35.3H331.15V36.3ZM331.15 41.5V42.5H332.15V41.5H331.15ZM318.95 41.9L319.657 42.6071L319.657 42.6071L318.95 41.9ZM318.95 43.9L318.243 44.6071L318.243 44.6071L318.95 43.9ZM331.51 45.94L332.217 45.2329L332.217 45.2329L331.51 45.94ZM331.51 56.26L332.217 56.9671L332.217 56.9671L331.51 56.26ZM311.95 57.1H310.95V58.0063L311.852 58.0952L311.95 57.1ZM311.876 52.8973C317.299 53.298 321.594 53.5 324.75 53.5V51.5C321.666 51.5 317.428 51.302 312.024 50.9027L311.876 52.8973ZM324.75 53.5C325.397 53.5 325.991 53.2736 326.457 52.8071L325.043 51.3929C324.976 51.4598 324.903 51.5 324.75 51.5V53.5ZM326.457 52.8071C326.924 52.3406 327.15 51.7474 327.15 51.1H325.15C325.15 51.2526 325.11 51.326 325.043 51.3929L326.457 52.8071ZM327.15 51.1V49.7H325.15V51.1H327.15ZM326.15 48.7H317.55V50.7H326.15V48.7ZM317.55 48.7C315.952 48.7 314.771 48.2264 313.897 47.3529L312.483 48.7671C313.796 50.0802 315.521 50.7 317.55 50.7V48.7ZM313.897 47.3529C313.024 46.4794 312.55 45.2975 312.55 43.7H310.55C310.55 45.7292 311.17 47.454 312.483 48.7671L313.897 47.3529ZM312.55 43.7V42.3H310.55V43.7H312.55ZM312.55 42.3C312.55 40.7025 313.024 39.5206 313.897 38.6471L312.483 37.2329C311.17 38.546 310.55 40.2708 310.55 42.3H312.55ZM313.897 38.6471C314.771 37.7736 315.952 37.3 317.55 37.3V35.3C315.521 35.3 313.796 35.9198 312.483 37.2329L313.897 38.6471ZM317.55 37.3H331.15V35.3H317.55V37.3ZM330.15 36.3V41.5H332.15V36.3H330.15ZM331.15 40.5H319.95V42.5H331.15V40.5ZM319.95 40.5C319.303 40.5 318.709 40.7264 318.243 41.1929L319.657 42.6071C319.724 42.5402 319.797 42.5 319.95 42.5V40.5ZM318.243 41.1929C317.776 41.6594 317.55 42.2526 317.55 42.9H319.55C319.55 42.7474 319.59 42.674 319.657 42.6071L318.243 41.1929ZM317.55 42.9C317.55 43.5474 317.776 44.1406 318.243 44.6071L319.657 43.1929C319.59 43.126 319.55 43.0526 319.55 42.9H317.55ZM318.243 44.6071C318.709 45.0736 319.303 45.3 319.95 45.3V43.3C319.797 43.3 319.724 43.2598 319.657 43.1929L318.243 44.6071ZM319.95 45.3H327.15V43.3H319.95V45.3ZM327.15 45.3C328.748 45.3 329.929 45.7736 330.803 46.6471L332.217 45.2329C330.904 43.9198 329.179 43.3 327.15 43.3V45.3ZM330.803 46.6471C331.676 47.5206 332.15 48.7025 332.15 50.3H334.15C334.15 48.2708 333.53 46.546 332.217 45.2329L330.803 46.6471ZM332.15 50.3V51.9H334.15V50.3H332.15ZM332.15 51.9C332.15 53.4975 331.676 54.6794 330.803 55.5529L332.217 56.9671C333.53 55.654 334.15 53.9292 334.15 51.9H332.15ZM330.803 55.5529C329.929 56.4264 328.748 56.9 327.15 56.9V58.9C329.179 58.9 330.904 58.2802 332.217 56.9671L330.803 55.5529ZM327.15 56.9C322.467 56.9 317.434 56.6354 312.048 56.1048L311.852 58.0952C317.293 58.6313 322.393 58.9 327.15 58.9V56.9ZM312.95 57.1V51.9H310.95V57.1H312.95Z" fill="#00A884"/>
<path d="M180 73.2C168.107 74.2667 158.24 74.8 150.4 74.8C145.173 74.8 141.333 73.5733 138.88 71.12C136.427 68.6667 135.2 64.8267 135.2 59.6V34C135.2 28.4 136.453 24.3467 138.96 21.84C141.52 19.28 145.6 18 151.2 18H180V29.2H154.4C151.2 29.2 149.6 30.8 149.6 34V59.6C149.6 60.8267 149.947 61.8133 150.64 62.56C151.387 63.2533 152.32 63.6 153.44 63.6C154.56 63.6 155.787 63.6 157.12 63.6C158.453 63.5467 159.84 63.4933 161.28 63.44C162.72 63.3867 164.16 63.3333 165.6 63.28C167.093 63.2267 168.987 63.12 171.28 62.96C173.627 62.8 176.533 62.6133 180 62.4V73.2Z" fill="#00A884"/>
</svg>
